<svg width="94" height="94" viewBox="0 0 94 94" fill="none" xmlns="http://www.w3.org/2000/svg">
	<rect x="5" y="5" width="84" height="84" rx="16" fill="#E4F7F5" stroke="#F6FCFC" stroke-width="10" />
	<g clip-path="url(#clip0_668_47104)">
		<path d="M57.1779 65.896C52.3127 65.896 48.3549 61.9372 48.3549 57.073C48.3549 52.2087 52.3127 48.2499 57.1779 48.2499C62.0422 48.2499 66.0001 52.2078 66.0001 57.073C66.0001 61.9381 62.0422 65.896 57.1779 65.896ZM62.0045 57.4438C62.0531 57.4442 62.1014 57.435 62.1465 57.4167C62.1915 57.3985 62.2325 57.3714 62.2671 57.3372C62.3017 57.3029 62.3291 57.2622 62.3478 57.2173C62.3665 57.1724 62.3762 57.1242 62.3762 57.0756C62.3762 57.0268 62.3666 56.9785 62.3479 56.9335C62.3292 56.8884 62.3018 56.8475 62.2673 56.8131C62.2327 56.7786 62.1918 56.7513 62.1467 56.7328C62.1016 56.7142 62.0533 56.7047 62.0045 56.7048H57.5487V52.2472C57.5487 52.1488 57.5096 52.0544 57.44 51.9847C57.3704 51.9151 57.2759 51.876 57.1775 51.876C57.079 51.876 56.9846 51.9151 56.915 51.9847C56.8453 52.0544 56.8062 52.1488 56.8062 52.2472V57.0721C56.8062 57.2763 56.9728 57.4429 57.177 57.4429L62.0045 57.4438ZM37.7435 37.849C38.138 35.9441 38.7078 34.0936 39.4932 32.4228C40.1586 31.0062 41.1833 29.3371 42.5482 28.294C35.1944 29.4791 29.3737 35.3007 28.1885 42.6528C29.2317 41.2888 30.9008 40.264 32.3174 39.5987C33.9882 38.8132 35.8387 38.2435 37.7435 37.849Z" fill="#42CAC2" />
		<path d="M39.9455 33.3474C39.3739 34.707 38.9321 36.1745 38.6016 37.684C40.7204 37.3053 42.8838 37.1335 44.9228 37.1142V28.0948C42.4692 28.3858 40.7958 31.3225 39.9455 33.3457V33.3474ZM45.7179 28.0965V37.1133C47.7578 37.1335 49.9212 37.3053 52.04 37.684C51.7095 36.1745 51.2668 34.707 50.6962 33.3465C49.8459 31.3233 48.1715 28.3867 45.7179 28.0957V28.0965Z" fill="#42CAC2" />
		<path d="M51.1487 32.4219C51.9341 34.0936 52.503 35.9441 52.8975 37.849C54.8024 38.2435 56.6529 38.8132 58.3246 39.5987C59.7429 40.2649 61.4137 41.2905 62.4578 42.6589C61.2743 35.3033 55.4484 29.4791 48.0937 28.294C49.4586 29.3371 50.4833 31.0053 51.1487 32.4219Z" fill="#42CAC2" />
		<path d="M57.4015 40.0501C56.0401 39.4794 54.5727 39.0368 53.0623 38.7063C53.4418 40.8259 53.6137 42.9894 53.6329 45.0292H62.655C62.3648 42.5747 59.4256 40.9004 57.4015 40.0501ZM52.8379 45.0292C52.8205 42.8499 52.6117 40.6763 52.2137 38.5336C50.071 38.1354 47.8974 37.9263 45.7181 37.9086V45.0292H52.8379ZM44.923 45.0292V37.9086C42.8218 37.9296 40.5943 38.1216 38.4273 38.5336C38.0294 40.6763 37.8206 42.8499 37.8032 45.0292H44.923ZM37.0081 45.0292C37.0283 42.9894 37.2001 40.8259 37.5779 38.7072C36.0693 39.0376 34.6018 39.4794 33.2422 40.051C31.2172 40.9013 28.2815 42.5756 27.9913 45.0292H37.0081ZM37.0081 45.8234H27.9913C28.2824 48.2779 31.219 49.9514 33.2422 50.8017C34.6027 51.3724 36.0701 51.8151 37.5797 52.1455C37.201 50.0268 37.0291 47.8633 37.0099 45.8234H37.0081ZM37.8032 45.8234C37.8242 47.9255 38.0162 50.153 38.4282 52.3191C40.5934 52.7311 42.8218 52.9222 44.9239 52.9441V45.8234H37.8032ZM45.7181 45.8234V52.9441C46.6857 52.935 47.6527 52.8897 48.617 52.8082C49.5133 51.02 50.9441 49.5552 52.7107 48.6172C52.787 47.688 52.8291 46.7553 52.8387 45.8234H45.7181ZM53.6329 45.8234C53.625 46.6255 53.5935 47.4276 53.5365 48.228C54.6594 47.7643 55.8893 47.5074 57.1771 47.5074C58.6217 47.5074 59.9918 47.83 61.2208 48.4051C61.9414 47.6959 62.527 46.8254 62.6523 45.8234H53.6329ZM62.456 48.2034C62.3004 48.4077 62.1336 48.6032 61.9563 48.789C62.0747 48.8583 62.1912 48.9293 62.307 49.0029C62.3631 48.7373 62.4121 48.4708 62.456 48.2034Z" fill="#42CAC2" />
		<path d="M39.4924 58.4297C38.7078 56.758 38.138 54.9083 37.7435 53.0035C35.8387 52.609 33.9882 52.0392 32.3174 51.2538C30.9008 50.5884 29.2317 49.5637 28.1885 48.1988C29.3737 55.5518 35.1952 61.3733 42.5473 62.5585C41.1833 61.5153 40.1586 59.8463 39.4932 58.4297H39.4924Z" fill="#42CAC2" />
		<path d="M38.6016 53.168C38.9321 54.6775 39.3739 56.145 39.9455 57.5046C40.7958 59.5287 42.4701 62.4653 44.9228 62.7555V53.7387C42.8838 53.7194 40.7204 53.5467 38.6016 53.168ZM45.7179 53.7378V62.7546C46.8172 62.6178 47.7578 61.9288 48.5055 61.1066C47.9157 59.8436 47.6107 58.4664 47.6123 57.0724C47.6123 55.8618 47.8393 54.703 48.2513 53.6361C47.408 53.6975 46.5621 53.7308 45.7179 53.7378ZM48.8982 61.857C48.6519 62.1094 48.3898 62.3452 48.1128 62.5565C48.4775 62.4969 48.8404 62.4267 49.1998 62.3443C49.0946 62.1848 48.9947 62.0226 48.8982 61.857Z" fill="#42CAC2" />
	</g>
	<defs>
		<clipPath id="clip0_668_47104">
			<rect width="38" height="38" fill="white" transform="translate(28 28)" />
		</clipPath>
	</defs>
</svg>
