<svg width="94" height="94" viewBox="0 0 94 94" fill="none" xmlns="http://www.w3.org/2000/svg">
	<rect x="5" y="5" width="84" height="84" rx="16" fill="#E2F2FF" stroke="#F5FBFF" stroke-width="10" />
	<path d="M46.9997 27.4066C43.1247 27.4066 39.3366 28.5557 36.1146 30.7086C32.8927 32.8614 30.3814 35.9214 28.8985 39.5014C27.4156 43.0815 27.0276 47.0209 27.7836 50.8215C28.5396 54.6221 30.4056 58.1132 33.1457 60.8533C35.8857 63.5933 39.3768 65.4594 43.1774 66.2153C46.978 66.9713 50.9174 66.5833 54.4975 65.1004C58.0775 63.6175 61.1375 61.1063 63.2904 57.8843C65.4432 54.6623 66.5923 50.8743 66.5923 46.9992C66.5864 41.8047 64.5203 36.8247 60.8473 33.1516C57.1742 29.4786 52.1942 27.4125 46.9997 27.4066ZM46.9997 60.6288C44.7715 60.6331 42.5762 60.091 40.6061 59.0499C38.6359 58.0089 36.9511 56.5007 35.6991 54.6575C34.4471 52.8142 33.6661 50.6921 33.4245 48.477C33.1829 46.2619 33.488 44.0214 34.3133 41.9516C35.1385 39.8818 36.4586 38.0458 38.158 36.6046C39.8573 35.1633 41.8842 34.1607 44.0609 33.6845C46.2377 33.2083 48.498 33.273 50.6439 33.8731C52.7899 34.4731 54.756 35.5901 56.3701 37.1262V35.0733C56.3701 34.8474 56.4598 34.6307 56.6196 34.4709C56.7793 34.3112 56.996 34.2214 57.2219 34.2214C57.4479 34.2214 57.6645 34.3112 57.8243 34.4709C57.984 34.6307 58.0738 34.8474 58.0738 35.0733V39.3325C58.0738 39.5585 57.984 39.7751 57.8243 39.9349C57.6645 40.0946 57.4479 40.1844 57.2219 40.1844H52.9627C52.7367 40.1844 52.5201 40.0946 52.3603 39.9349C52.2006 39.7751 52.1108 39.5585 52.1108 39.3325C52.1108 39.1066 52.2006 38.8899 52.3603 38.7302C52.5201 38.5704 52.7367 38.4807 52.9627 38.4807H55.3232C53.2906 36.5151 50.6205 35.3435 47.7978 35.1786C44.9751 35.0137 42.1868 35.8663 39.9391 37.5818C37.6915 39.2973 36.1334 41.7619 35.5479 44.5281C34.9623 47.2943 35.388 50.1789 36.7477 52.658C38.1075 55.1371 40.3111 57.0465 42.9585 58.0395C45.6059 59.0325 48.5216 59.0434 51.1764 58.07C53.8311 57.0967 56.0488 55.2037 57.4269 52.7348C58.805 50.2658 59.2521 47.3845 58.6871 44.614C58.6419 44.3926 58.6866 44.1623 58.8112 43.9738C58.9358 43.7853 59.1302 43.654 59.3516 43.6088C59.573 43.5637 59.8033 43.6083 59.9918 43.7329C60.1803 43.8575 60.3116 44.0519 60.3567 44.2733C60.7588 46.2535 60.7158 48.2983 60.2311 50.26C59.7463 52.2216 58.8318 54.051 57.5537 55.616C56.2756 57.1811 54.6658 58.4426 52.8406 59.3096C51.0153 60.1765 49.0203 60.6271 46.9997 60.6288ZM51.8612 50.6562C51.9426 50.7348 52.0075 50.8288 52.0521 50.9327C52.0968 51.0366 52.1203 51.1484 52.1213 51.2615C52.1222 51.3746 52.1007 51.4868 52.0578 51.5915C52.015 51.6962 51.9518 51.7913 51.8718 51.8713C51.7918 51.9513 51.6967 52.0145 51.592 52.0574C51.4873 52.1002 51.3751 52.1217 51.262 52.1208C51.1489 52.1198 51.0371 52.0963 50.9332 52.0516C50.8293 52.007 50.7353 51.9421 50.6567 51.8607L46.3974 47.6015C46.2377 47.4418 46.1479 47.2251 46.1479 46.9992V38.4807C46.1479 38.2548 46.2376 38.0381 46.3974 37.8783C46.5571 37.7186 46.7738 37.6288 46.9997 37.6288C47.2256 37.6288 47.4423 37.7186 47.6021 37.8783C47.7618 38.0381 47.8516 38.2548 47.8516 38.4807V46.6465L51.8612 50.6562Z" fill="#49AFF3" />
</svg>
