<svg width="94" height="94" viewBox="0 0 94 94" fill="none" xmlns="http://www.w3.org/2000/svg">
	<rect x="5" y="5" width="84" height="84" rx="16" fill="#DCDAFF" stroke="#F7F7FF" stroke-width="10" />
	<g clip-path="url(#clip0_668_47158)">
		<path d="M60.7473 60.9595C57.9862 63.6784 54.4809 65.5174 50.6746 66.2442C46.8683 66.9709 42.932 66.5526 39.3634 65.0421C35.7948 63.5317 32.7543 60.997 30.6263 57.7585C28.4983 54.5201 27.3784 50.7233 27.4082 46.8484C27.4381 42.9735 28.6163 39.1944 30.7939 35.9891C32.9714 32.7837 36.0506 30.2961 39.642 28.8408C43.2334 27.3855 47.1757 27.0278 50.9703 27.813C54.765 28.5983 58.2416 30.4911 60.9605 33.2522C64.601 36.9575 66.6231 41.9556 66.5831 47.1499C66.5431 52.3442 64.4444 57.3106 60.7473 60.9595ZM37.4371 37.2877C35.8464 38.8481 34.6626 40.7747 33.9893 42.8988C33.3159 45.0229 33.1736 47.2796 33.5749 49.4715C33.9761 51.6633 34.9085 53.7233 36.2906 55.4712C37.6727 57.219 39.4622 58.6014 41.5025 59.4971C43.5427 60.3929 45.7715 60.7748 47.9936 60.6094C50.2157 60.444 52.3633 59.7363 54.2485 58.5483C56.1336 57.3603 57.6987 55.7282 58.8067 53.795C59.9148 51.8618 60.532 49.6864 60.6042 47.4593L62.0446 48.9221C62.2032 49.0831 62.4191 49.1745 62.6451 49.1762C62.871 49.1779 63.0883 49.0899 63.2493 48.9313C63.4103 48.7728 63.5017 48.5569 63.5034 48.3309C63.5052 48.105 63.4171 47.8877 63.2586 47.7267L60.2701 44.6918C60.1116 44.5309 59.8956 44.4395 59.6697 44.4377C59.4438 44.436 59.2264 44.5241 59.0654 44.6826L56.0306 47.6711C55.8696 47.8296 55.7782 48.0455 55.7765 48.2715C55.7747 48.4974 55.8628 48.7147 56.0213 48.8757C56.1798 49.0367 56.3958 49.1281 56.6217 49.1299C56.8477 49.1316 57.065 49.0435 57.226 48.885L58.9079 47.2288C58.8388 50.0555 57.7583 52.7637 55.8628 54.8617C53.9672 56.9598 51.3822 58.3086 48.577 58.6633C45.7719 59.0181 42.9325 58.3552 40.5743 56.795C38.2162 55.2349 36.4956 52.8809 35.725 50.1604C34.9544 47.4399 35.1848 44.5333 36.3744 41.9682C37.564 39.403 39.6339 37.3495 42.2084 36.1804C44.7829 35.0113 47.6913 34.804 50.4056 35.5963C53.1199 36.3885 55.4601 38.1278 57.0014 40.4983C57.1246 40.6878 57.3179 40.8205 57.539 40.8674C57.76 40.9143 57.9907 40.8715 58.1801 40.7483C58.3696 40.6252 58.5024 40.4318 58.5492 40.2107C58.5961 39.9897 58.5533 39.7591 58.4301 39.5696C57.3272 37.8766 55.8618 36.4497 54.1401 35.3921C52.4183 34.3345 50.4831 33.6726 48.4743 33.4543C46.4655 33.2359 44.4333 33.4666 42.5245 34.1295C40.6157 34.7925 38.8781 35.8712 37.4371 37.2877ZM47.8983 40.9824C47.9011 40.8693 47.8814 40.7568 47.8403 40.6515C47.7992 40.5461 47.7375 40.4499 47.6589 40.3687C47.5802 40.2874 47.4861 40.2226 47.3822 40.178C47.2782 40.1335 47.1664 40.1101 47.0533 40.1092C46.9402 40.1084 46.828 40.13 46.7234 40.173C46.6187 40.2159 46.5237 40.2792 46.4438 40.3593C46.3639 40.4394 46.3007 40.5345 46.258 40.6393C46.2152 40.744 46.1938 40.8562 46.1949 40.9693L46.1485 46.9926C46.1468 47.2185 46.2348 47.4359 46.3933 47.5969L52.3702 53.6666C52.5288 53.8275 52.7447 53.919 52.9707 53.9207C53.1966 53.9224 53.4139 53.8344 53.5749 53.6758C53.7359 53.5173 53.8273 53.3013 53.829 53.0754C53.8308 52.8495 53.7427 52.6321 53.5842 52.4712L47.8547 46.6528L47.8983 40.9824Z" fill="#7A71FF" />
		<rect x="42" y="38" width="12" height="16" fill="#7A71FF" />
		<rect x="41" y="50" width="2" height="2" fill="#7A71FF" />
		<path d="M46 46.4289V40C46 39.4477 46.4477 39 47 39C47.5523 39 48 39.4477 48 40V45.636C48 46.8295 48.4741 47.9741 49.318 48.818L51.75 51.25C52.1642 51.6642 52.1642 52.3358 51.75 52.75C51.3358 53.1642 50.6642 53.1642 50.25 52.75L47.4645 49.9645C46.5268 49.0268 46 47.755 46 46.4289Z" fill="#DCDAFF" />
	</g>
	<defs>
		<clipPath id="clip0_668_47158">
			<rect width="46" height="46" fill="white" transform="translate(24 24)" />
		</clipPath>
	</defs>
</svg>
