<svg width="94" height="94" viewBox="0 0 94 94" fill="none" xmlns="http://www.w3.org/2000/svg">
	<rect x="5" y="5" width="84" height="84" rx="16" fill="#F0EBFD" stroke="#FAF8FF" stroke-width="10" />
	<g clip-path="url(#clip0_668_47185)">
		<path d="M34.5716 48.1875H28.0451C28.2125 50.8879 28.9598 53.5206 30.2361 55.9063H35.6119C34.983 53.3793 34.6349 50.7908 34.5716 48.1875ZM31.7383 58.2813C33.7824 61.0462 36.5348 63.2082 39.7052 64.5394C38.2179 62.6697 37.0744 60.5508 36.3279 58.2813H31.7383ZM35.125 42.25C36.5342 42.25 37.9117 41.8321 39.0834 41.0492C40.2551 40.2663 41.1684 39.1535 41.7076 37.8516C42.2469 36.5497 42.388 35.1171 42.1131 33.735C41.8382 32.3529 41.1596 31.0833 40.1631 30.0869C39.1667 29.0904 37.8971 28.4118 36.515 28.1369C35.1329 27.862 33.7003 28.0031 32.3984 28.5424C31.0965 29.0816 29.9837 29.9949 29.2008 31.1666C28.4179 32.3383 28 33.7158 28 35.125C28 37.0147 28.7507 38.8269 30.0869 40.1631C31.4231 41.4993 33.2353 42.25 35.125 42.25ZM33.9375 31.5625H36.3125V33.9375H38.6875V36.3125H33.9375V31.5625ZM38.051 55.9063H45.8125V48.1875H36.9371C37.0028 50.7953 37.3767 53.3863 38.051 55.9063ZM55.949 38.0938H48.1875V45.8125H57.0629C56.9972 43.2047 56.6233 40.6138 55.949 38.0938ZM45.8125 65.8646V58.2813H38.8395C40.4426 62.4256 42.9209 65.2519 45.8125 65.8646ZM48.1875 28.1354V35.7188H55.1605C53.5574 31.5744 51.0791 28.7481 48.1875 28.1354ZM59.4284 45.8125H65.9549C65.7875 43.1121 65.0402 40.4794 63.7639 38.0938H58.3881C59.0169 40.6208 59.365 43.2092 59.4284 45.8125ZM62.2617 35.7188C60.2176 32.9538 57.4652 30.7918 54.2948 29.4606C55.7822 31.3303 56.9257 33.4492 57.6721 35.7188H62.2617ZM58.875 51.75C57.4658 51.75 56.0883 52.1679 54.9166 52.9508C53.7449 53.7337 52.8316 54.8465 52.2924 56.1484C51.7531 57.4503 51.612 58.8829 51.8869 60.265C52.1618 61.6471 52.8404 62.9167 53.8369 63.9131C54.8333 64.9096 56.1029 65.5882 57.485 65.8631C58.8671 66.138 60.2997 65.9969 61.6016 65.4576C62.9035 64.9184 64.0163 64.0051 64.7992 62.8334C65.5821 61.6617 66 60.2842 66 58.875C66 56.9853 65.2493 55.1731 63.9131 53.8369C62.5769 52.5007 60.7647 51.75 58.875 51.75ZM62.4375 60.0625H57.6875V55.3125H60.0625V57.6875H62.4375V60.0625ZM56.9821 49.565C57.013 49.1078 57.0486 48.6542 57.0629 48.1875H48.1875V55.9063H49.8571C50.3829 54.3165 51.3184 52.8933 52.5692 51.7801C53.82 50.6668 55.3421 49.9028 56.9821 49.565ZM49.4047 58.2813H48.1875V65.8646C49.2775 65.6119 50.2895 65.0976 51.1361 64.366C49.9905 62.7642 49.3747 60.8442 49.375 58.875C49.375 58.6743 49.3928 58.4784 49.4047 58.2813ZM59.3619 49.3988C61.5859 49.511 63.6988 50.4051 65.3279 51.9234C65.6622 50.7024 65.8722 49.4507 65.9549 48.1875H59.4284C59.4165 48.5984 59.3856 48.9962 59.3619 49.3988ZM28.0451 45.8125H34.5716C34.5835 45.4016 34.6144 45.0038 34.6381 44.6013C32.4141 44.489 30.3012 43.5949 28.6721 42.0766C28.3378 43.2976 28.1278 44.5493 28.0451 45.8125ZM37.0179 44.435C36.987 44.8922 36.9514 45.3458 36.9371 45.8125H45.8125V38.0938H44.1429C43.6171 39.6835 42.6816 41.1067 41.4308 42.2199C40.18 43.3332 38.6579 44.0972 37.0179 44.435ZM44.625 35.125C44.625 35.3257 44.6072 35.5216 44.5953 35.7188H45.8125V28.1354C44.7225 28.3881 43.7105 28.9025 42.8639 29.634C44.0095 31.2358 44.6253 33.1558 44.625 35.125Z" fill="#A277EE" />
	</g>
	<defs>
		<clipPath id="clip0_668_47185">
			<rect width="38" height="38" fill="white" transform="translate(28 28)" />
		</clipPath>
	</defs>
</svg>
