<svg width="94" height="94" viewBox="0 0 94 94" fill="none" xmlns="http://www.w3.org/2000/svg">
	<rect x="5" y="5" width="84" height="84" rx="16" fill="#FFF2D0" stroke="#FFFBEF" stroke-width="10" />
	<path d="M63.667 48.1108H30.3337C30.039 48.1108 29.7564 47.9937 29.548 47.7854C29.3397 47.577 29.2226 47.2944 29.2226 46.9997C29.2226 46.705 29.3397 46.4224 29.548 46.214C29.7564 46.0056 30.039 45.8886 30.3337 45.8886H63.667C63.9617 45.8886 64.2443 46.0056 64.4527 46.214C64.6611 46.4224 64.7782 46.705 64.7782 46.9997C64.7782 47.2944 64.6611 47.577 64.4527 47.7854C64.2443 47.9937 63.9617 48.1108 63.667 48.1108ZM55.8893 46.9997C55.8893 47.2944 55.7722 47.577 55.5638 47.7854C55.3555 47.9937 55.0728 48.1108 54.7782 48.1108H39.2226C38.9279 48.1108 38.6453 47.9937 38.4369 47.7854C38.2285 47.577 38.1115 47.2944 38.1115 46.9997C38.1115 44.6422 39.048 42.3813 40.715 40.7143C42.382 39.0473 44.6429 38.1108 47.0004 38.1108C49.3579 38.1108 51.6188 39.0473 53.2858 40.7143C54.9528 42.3813 55.8893 44.6422 55.8893 46.9997ZM47.0004 35.8886C46.7057 35.8886 46.4231 35.7715 46.2147 35.5631C46.0063 35.3548 45.8893 35.0721 45.8893 34.7775V30.333C45.8893 30.0383 46.0063 29.7557 46.2147 29.5473C46.4231 29.339 46.7057 29.2219 47.0004 29.2219C47.2951 29.2219 47.5777 29.339 47.786 29.5473C47.9944 29.7557 48.1115 30.0383 48.1115 30.333V34.7775C48.1115 35.0721 47.9944 35.3548 47.786 35.5631C47.5777 35.7715 47.2951 35.8886 47.0004 35.8886ZM38.3582 39.4686C38.0635 39.4685 37.7809 39.3514 37.5726 39.143L34.4304 35.9997C34.3202 35.8982 34.2316 35.7756 34.17 35.639C34.1084 35.5025 34.0751 35.3549 34.072 35.2052C34.0689 35.0554 34.0961 34.9066 34.1519 34.7676C34.2078 34.6286 34.2912 34.5024 34.3972 34.3965C34.5031 34.2906 34.6293 34.2071 34.7683 34.1513C34.9073 34.0954 35.0561 34.0682 35.2058 34.0713C35.3556 34.0744 35.5032 34.1077 35.6397 34.1693C35.7763 34.2309 35.8989 34.3195 36.0004 34.4297L39.1426 37.5719C39.2979 37.7273 39.4037 37.9253 39.4466 38.1408C39.4894 38.3563 39.4674 38.5796 39.3833 38.7826C39.2993 38.9856 39.1569 39.1592 38.9742 39.2812C38.7915 39.4033 38.5768 39.4685 38.357 39.4686H38.3582ZM55.6426 39.4686C55.4229 39.4685 55.2081 39.4033 55.0254 39.2812C54.8427 39.1592 54.7004 38.9856 54.6163 38.7826C54.5322 38.5796 54.5102 38.3563 54.5531 38.1408C54.5959 37.9253 54.7017 37.7273 54.857 37.5719L58.0004 34.4297C58.1018 34.3195 58.2245 34.2309 58.361 34.1693C58.4976 34.1077 58.6451 34.0744 58.7949 34.0713C58.9447 34.0682 59.0935 34.0954 59.2325 34.1513C59.3714 34.2071 59.4977 34.2906 59.6036 34.3965C59.7095 34.5024 59.7929 34.6286 59.8488 34.7676C59.9047 34.9066 59.9319 35.0554 59.9288 35.2052C59.9257 35.3549 59.8923 35.5025 59.8307 35.639C59.7691 35.7756 59.6806 35.8982 59.5704 35.9997L56.4282 39.1419C56.3251 39.2453 56.2027 39.3274 56.0679 39.3834C55.9331 39.4395 55.7886 39.4684 55.6426 39.4686ZM47.0004 50.333C46.7057 50.333 46.4231 50.4501 46.2147 50.6585C46.0063 50.8668 45.8893 51.1494 45.8893 51.4441V63.6664C45.8893 63.961 46.0063 64.2437 46.2147 64.452C46.4231 64.6604 46.7057 64.7775 47.0004 64.7775C47.2951 64.7775 47.5777 64.6604 47.786 64.452C47.9944 64.2437 48.1115 63.961 48.1115 63.6664V51.4441C48.1115 51.1494 47.9944 50.8668 47.786 50.6585C47.5777 50.4501 47.2951 50.333 47.0004 50.333ZM47.0004 50.333C46.7057 50.333 46.4231 50.4501 46.2147 50.6585L42.3259 54.5475C42.1235 54.757 42.0115 55.0377 42.0141 55.329C42.0166 55.6204 42.1335 55.899 42.3395 56.105C42.5455 56.3111 42.8242 56.4279 43.1155 56.4304C43.4068 56.433 43.6875 56.321 43.897 56.1186L47.0004 53.0152L50.1037 56.1186C50.3133 56.321 50.5939 56.433 50.8853 56.4304C51.1766 56.4279 51.4553 56.3111 51.6613 56.105C51.8673 55.899 51.9841 55.6204 51.9867 55.329C51.9892 55.0377 51.8772 54.757 51.6748 54.5475L47.786 50.6585C47.5777 50.4501 47.2951 50.333 47.0004 50.333Z" fill="#FF7D00" />
</svg>
