<svg width="94" height="94" viewBox="0 0 94 94" fill="none" xmlns="http://www.w3.org/2000/svg">
	<rect x="5" y="5" width="84" height="84" rx="16" fill="#FFE3DF" stroke="#FFF8F6" stroke-width="10" />
	<path d="M63.6671 48.1115H30.3338C30.0391 48.1115 29.7565 47.9945 29.5481 47.7861C29.3397 47.5777 29.2227 47.2951 29.2227 47.0004C29.2227 46.7057 29.3397 46.4231 29.5481 46.2148C29.7565 46.0064 30.0391 45.8893 30.3338 45.8893H63.6671C63.9618 45.8893 64.2444 46.0064 64.4528 46.2148C64.6611 46.4231 64.7782 46.7057 64.7782 47.0004C64.7782 47.2951 64.6611 47.5777 64.4528 47.7861C64.2444 47.9945 63.9618 48.1115 63.6671 48.1115ZM55.8893 47.0004C55.8893 47.2951 55.7723 47.5777 55.5639 47.7861C55.3555 47.9945 55.0729 48.1115 54.7782 48.1115H39.2227C38.928 48.1115 38.6454 47.9945 38.437 47.7861C38.2286 47.5777 38.1115 47.2951 38.1115 47.0004C38.1115 44.643 39.048 42.382 40.715 40.715C42.382 39.048 44.643 38.1115 47.0004 38.1115C49.3579 38.1115 51.6188 39.048 53.2858 40.715C54.9528 42.382 55.8893 44.643 55.8893 47.0004ZM47.0004 35.8893C46.7057 35.8893 46.4231 35.7723 46.2148 35.5639C46.0064 35.3555 45.8893 35.0729 45.8893 34.7782V30.3338C45.8893 30.0391 46.0064 29.7565 46.2148 29.5481C46.4231 29.3397 46.7057 29.2227 47.0004 29.2227C47.2951 29.2227 47.5777 29.3397 47.7861 29.5481C47.9945 29.7565 48.1115 30.0391 48.1115 30.3338V34.7782C48.1115 35.0729 47.9945 35.3555 47.7861 35.5639C47.5777 35.7723 47.2951 35.8893 47.0004 35.8893ZM38.3582 39.4693C38.0636 39.4693 37.781 39.3522 37.5727 39.1438L34.4304 36.0004C34.3202 35.899 34.2317 35.7763 34.1701 35.6398C34.1085 35.5032 34.0751 35.3557 34.072 35.2059C34.0689 35.0562 34.0961 34.9073 34.152 34.7683C34.2079 34.6294 34.2913 34.5031 34.3972 34.3972C34.5031 34.2913 34.6294 34.2079 34.7683 34.152C34.9073 34.0961 35.0562 34.0689 35.2059 34.072C35.3557 34.0751 35.5032 34.1085 35.6398 34.1701C35.7763 34.2317 35.899 34.3202 36.0004 34.4304L39.1427 37.5727C39.298 37.728 39.4038 37.926 39.4466 38.1415C39.4895 38.357 39.4675 38.5804 39.3834 38.7834C39.2993 38.9864 39.157 39.1599 38.9743 39.282C38.7916 39.4041 38.5768 39.4693 38.3571 39.4693H38.3582ZM55.6427 39.4693C55.4229 39.4693 55.2082 39.4041 55.0255 39.282C54.8428 39.1599 54.7004 38.9864 54.6163 38.7834C54.5323 38.5804 54.5103 38.357 54.5531 38.1415C54.596 37.926 54.7018 37.728 54.8571 37.5727L58.0004 34.4304C58.1019 34.3202 58.2245 34.2317 58.3611 34.1701C58.4976 34.1085 58.6452 34.0751 58.795 34.072C58.9447 34.0689 59.0935 34.0961 59.2325 34.152C59.3715 34.2079 59.4977 34.2913 59.6036 34.3972C59.7096 34.5031 59.793 34.6294 59.8489 34.7683C59.9047 34.9073 59.9319 35.0562 59.9288 35.2059C59.9257 35.3557 59.8924 35.5032 59.8308 35.6398C59.7692 35.7763 59.6806 35.899 59.5704 36.0004L56.4282 39.1427C56.3251 39.246 56.2027 39.3281 56.0679 39.3842C55.9331 39.4402 55.7886 39.4691 55.6427 39.4693ZM47.0004 64.7782C46.7057 64.7782 46.4231 64.6611 46.2148 64.4528C46.0064 64.2444 45.8893 63.9618 45.8893 63.6671V51.4449C45.8893 51.1502 46.0064 50.8676 46.2148 50.6592C46.4231 50.4508 46.7057 50.3338 47.0004 50.3338C47.2951 50.3338 47.5777 50.4508 47.7861 50.6592C47.9945 50.8676 48.1115 51.1502 48.1115 51.4449V63.6671C48.1115 63.9618 47.9945 64.2444 47.7861 64.4528C47.5777 64.6611 47.2951 64.7782 47.0004 64.7782ZM47.0004 64.7782C46.7057 64.7782 46.4231 64.6611 46.2148 64.4528L42.326 60.5638C42.1236 60.3542 42.0116 60.0735 42.0141 59.7822C42.0167 59.4909 42.1335 59.2122 42.3395 59.0062C42.5455 58.8002 42.8242 58.6833 43.1155 58.6808C43.4069 58.6783 43.6875 58.7903 43.8971 58.9927L47.0004 62.096L50.1038 58.9927C50.3133 58.7903 50.594 58.6783 50.8853 58.6808C51.1767 58.6833 51.4553 58.8002 51.6613 59.0062C51.8674 59.2122 51.9842 59.4909 51.9867 59.7822C51.9893 60.0735 51.8773 60.3542 51.6749 60.5638L47.7861 64.4528C47.5777 64.6611 47.2951 64.7782 47.0004 64.7782Z" fill="#FF0000" />
</svg>
