<svg width="94" height="94" viewBox="0 0 94 94" fill="none" xmlns="http://www.w3.org/2000/svg">
	<rect x="5" y="5" width="84" height="84" rx="16" fill="#FFE3EF" stroke="#FFF2F8" stroke-width="10" />
	<g clip-path="url(#clip0_668_47174)">
		<path d="M47 66C57.4907 66 66 57.4907 66 47C66 36.5093 57.4907 28 47 28C36.5093 28 28 36.5093 28 47C28 57.4907 36.5093 66 47 66ZM45.6428 36.1429C45.6428 35.3964 46.2535 34.7857 47 34.7857C47.7465 34.7857 48.3572 35.3964 48.3572 36.1429V46.3486L54.634 51.37C55.2176 51.8382 55.3125 52.6932 54.8443 53.2768C54.7176 53.4359 54.5566 53.5643 54.3732 53.6524C54.1899 53.7405 53.9891 53.7861 53.7857 53.7857C53.4871 53.7857 53.1885 53.6906 52.9375 53.4871L46.1518 48.0586C45.8329 47.8007 45.6429 47.414 45.6429 47V36.1429H45.6428Z" fill="#F15D9E" />
	</g>
	<defs>
		<clipPath id="clip0_668_47174">
			<rect width="38" height="38" fill="white" transform="translate(28 28)" />
		</clipPath>
	</defs>
</svg>
