<svg width="94" height="94" viewBox="0 0 94 94" fill="none" xmlns="http://www.w3.org/2000/svg">
	<rect x="5" y="5" width="84" height="84" rx="16" fill="#DDDDDD" stroke="#F1F1F1" stroke-width="10" />
	<g clip-path="url(#clip0_668_47196)">
		<path d="M63.5188 50.3421C63.1321 50.1035 62.6327 50.1473 62.2978 50.4534C59.859 52.6655 56.7041 53.8845 53.4162 53.8845C46.1186 53.8845 40.1811 47.9471 40.1811 40.6494C40.1811 37.3613 41.4001 34.2067 43.6122 31.7678C43.7608 31.604 43.8521 31.3962 43.8722 31.1759C43.8923 30.9556 43.8401 30.7348 43.7235 30.5468C43.4838 30.1611 43.0146 29.9821 42.5811 30.1045C35.1729 32.2023 30 39.0505 30 46.7578C30 56.3015 37.7641 64.0654 47.3077 64.0654C55.0149 64.0654 61.8633 58.8925 63.9611 51.4845C64.0215 51.2719 64.0111 51.0454 63.9313 50.8392C63.8515 50.6331 63.7067 50.4586 63.5188 50.3421Z" fill="#575757" />
	</g>
	<defs>
		<clipPath id="clip0_668_47196">
			<rect width="34" height="34" fill="white" transform="translate(30 30)" />
		</clipPath>
	</defs>
</svg>
