<svg width="589" height="140" viewBox="0 0 589 140" fill="none" xmlns="http://www.w3.org/2000/svg">
	<path d="M589 0H0V140H589V0Z" fill="#2A3259" />
	<path d="M575.335 34.029C574.8 33.6991 574.11 33.7598 573.647 34.1829C570.276 37.2409 565.915 38.926 561.37 38.926C551.282 38.926 543.074 30.7182 543.074 20.6299C543.074 16.0844 544.759 11.7235 547.817 8.35203C548.022 8.12555 548.149 7.83834 548.176 7.53381C548.204 7.22928 548.132 6.924 547.971 6.66411C547.639 6.13093 546.991 5.88344 546.392 6.05272C536.151 8.95267 529 18.4196 529 29.0741C529 42.2673 539.733 53 552.925 53C563.58 53 573.047 45.849 575.946 35.6083C576.03 35.3144 576.016 35.0012 575.905 34.7163C575.795 34.4313 575.595 34.1901 575.335 34.029Z" fill="white" fill-opacity="0.1" />
	<path d="M497.061 37.2997L493.638 39.3616C493.487 39.4579 493.329 39.4991 493.164 39.4854C492.999 39.4716 492.855 39.4166 492.731 39.3204C492.607 39.2242 492.511 39.1038 492.442 38.9591C492.373 38.8145 492.36 38.6531 492.401 38.475L493.308 34.5778L490.277 31.9591C490.14 31.8354 490.054 31.6944 490.02 31.536C489.986 31.3777 489.996 31.2231 490.05 31.0725C490.105 30.9213 490.188 30.7975 490.298 30.7013C490.408 30.6051 490.559 30.5432 490.751 30.5157L494.752 30.1652L496.298 26.4949C496.367 26.3299 496.473 26.2062 496.618 26.1237C496.763 26.0412 496.91 26 497.061 26C497.212 26 497.36 26.0412 497.504 26.1237C497.648 26.2062 497.755 26.3299 497.824 26.4949L499.37 30.1652L503.371 30.5157C503.563 30.5432 503.714 30.6051 503.824 30.7013C503.934 30.7975 504.017 30.9213 504.072 31.0725C504.127 31.2237 504.137 31.3785 504.103 31.5368C504.069 31.6952 503.983 31.836 503.845 31.9591L500.814 34.5778L501.721 38.475C501.762 38.6537 501.749 38.8154 501.68 38.96C501.611 39.1046 501.515 39.2247 501.391 39.3204C501.267 39.4166 501.123 39.4716 500.958 39.4854C500.793 39.4991 500.635 39.4579 500.484 39.3616L497.061 37.2997Z" fill="white" fill-opacity="0.1" />
	<path d="M575.561 85.6989L573.835 86.7388C573.759 86.7874 573.679 86.8082 573.596 86.8012C573.512 86.7943 573.44 86.7666 573.377 86.718C573.315 86.6695 573.266 86.6088 573.232 86.5358C573.197 86.4629 573.19 86.3815 573.211 86.2916L573.668 84.3262L572.14 83.0054C572.07 82.943 572.027 82.8719 572.01 82.792C571.993 82.7122 571.998 82.6342 572.025 82.5583C572.053 82.482 572.095 82.4196 572.15 82.3711C572.206 82.3225 572.282 82.2913 572.379 82.2775L574.396 82.1007L575.176 80.2496C575.211 80.1664 575.265 80.104 575.338 80.0624C575.411 80.0208 575.485 80 575.561 80C575.637 80 575.712 80.0208 575.785 80.0624C575.857 80.104 575.911 80.1664 575.946 80.2496L576.726 82.1007L578.743 82.2775C578.84 82.2913 578.917 82.3225 578.972 82.3711C579.028 82.4196 579.069 82.482 579.097 82.5583C579.125 82.6345 579.13 82.7126 579.113 82.7925C579.096 82.8723 579.052 82.9433 578.983 83.0054L577.454 84.3262L577.911 86.2916C577.932 86.3818 577.925 86.4633 577.891 86.5362C577.856 86.6092 577.807 86.6698 577.745 86.718C577.683 86.7666 577.61 86.7943 577.527 86.8012C577.443 86.8082 577.364 86.7874 577.287 86.7388L575.561 85.6989Z" fill="white" fill-opacity="0.1" />
</svg>
