<svg width="589" height="140" viewBox="0 0 589 140" fill="none" xmlns="http://www.w3.org/2000/svg">
	<path d="M589 0H0V140H589V0Z" fill="#FF8809" />
	<path d="M494 218C567.454 218 627 157.313 627 82.4529C627 7.59234 567.454 -53.0941 494 -53.0941C420.546 -53.0941 361 7.59234 361 82.4529C361 157.313 420.546 218 494 218Z" fill="#FFA123" />
	<path d="M524 173.15C581.99 173.15 629 116.257 629 46.075C629 -24.1066 581.99 -81 524 -81C466.01 -81 419 -24.1066 419 46.075C419 116.257 466.01 173.15 524 173.15Z" fill="#FFB211" />
	<path d="M572.5 79.3828C615.854 79.3828 651 44.3544 651 1.14455C651 -42.0653 615.854 -77.0938 572.5 -77.0938C529.146 -77.0938 494 -42.0653 494 1.14455C494 44.3544 529.146 79.3828 572.5 79.3828Z" fill="#FFC602" />
</svg>
