<svg width="589" height="140" viewBox="0 0 589 140" fill="none" xmlns="http://www.w3.org/2000/svg">
	<path d="M589 0H0V140H589V0Z" fill="#388DE7" />
	<g opacity="0.1">
		<path d="M263.454 1.53239C265.355 -25.0035 291.44 -46.0303 323.347 -46.0303C349.077 -46.0303 371.023 -32.3514 379.551 -13.1382C401.71 -12.9127 419.592 2.31526 419.592 21.0793C419.592 39.9841 401.443 55.31 379.053 55.31H264.566C246.972 55.31 232.707 43.2655 232.707 28.4089C232.707 13.8676 246.375 2.02913 263.454 1.53239Z" fill="#F0F5F7" />
		<path d="M419.593 21.0807C419.593 34.7578 410.086 46.5648 396.351 52.0437C398.903 47.4769 400.222 42.4889 400.214 37.4395C400.214 18.676 382.334 3.44574 360.175 3.22256C351.645 -15.9935 329.701 -29.6695 303.968 -29.6695C292.365 -29.6695 281.528 -26.8883 272.348 -22.0693C282.937 -36.4537 301.816 -46.0283 323.347 -46.0283C349.074 -46.0283 371.024 -32.3517 379.548 -13.1408C401.71 -12.913 419.593 2.31723 419.593 21.0807Z" fill="#DDE9ED" />
		<path d="M581.403 65.562C579.261 35.7012 549.908 12.042 514.005 12.042C485.05 12.042 460.355 27.4325 450.758 49.0516C425.822 49.3062 405.699 66.4427 405.699 87.5587C405.699 108.833 426.124 126.077 451.317 126.077H580.15C599.949 126.077 615.998 112.524 615.998 95.8074C615.998 79.4417 600.62 66.1211 581.402 65.562H581.403Z" fill="#C4E1E8" />
		<path d="M616.002 95.8051C616.002 112.524 599.948 126.079 580.148 126.079H577.371C580.053 121.754 581.45 116.943 581.443 112.061C581.443 95.6975 566.064 82.3746 546.844 81.8138C544.705 51.9552 515.347 28.2932 479.446 28.2932C474.604 28.2932 469.884 28.7224 465.336 29.5407C477.616 18.7547 494.88 12.042 514.005 12.042C549.909 12.042 579.264 35.6995 581.403 65.5643C600.623 66.1188 616.002 79.4417 616.002 95.8051Z" fill="#A4D5DD" />
		<path d="M444.703 49.561C442.561 19.7002 413.209 -3.95898 377.305 -3.95898C348.35 -3.95898 323.656 11.4315 314.059 33.0506C289.122 33.3047 269 50.4417 269 71.5578C269 92.83 289.425 110.076 314.618 110.076H443.45C463.25 110.076 479.302 96.5228 479.302 79.8041C479.299 63.4407 463.92 50.1201 444.703 49.561Z" fill="#C4E1E8" />
		<path d="M479.302 79.8041C479.302 96.5228 463.249 110.078 443.449 110.078H440.672C443.355 105.753 444.752 100.942 444.744 96.0599C444.744 79.6965 429.365 66.3736 410.145 65.8128C408.006 35.9543 378.649 12.2922 342.747 12.2922C337.905 12.2922 333.185 12.7214 328.637 13.5398C340.918 2.75368 358.182 -3.95898 377.307 -3.95898C413.211 -3.95898 442.565 19.6985 444.707 49.5633C463.924 50.1178 479.303 63.4407 479.303 79.8041H479.302Z" fill="#A4D5DD" />
		<path d="M552.678 119.169C550.539 89.3086 521.185 65.6494 485.283 65.6494C456.326 65.6494 431.631 81.0399 422.034 102.658C397.1 102.914 376.979 120.052 376.979 141.166C376.979 162.44 397.4 179.684 422.595 179.684H551.43C571.226 179.684 587.277 166.131 587.277 149.415C587.277 133.049 571.898 119.729 552.678 119.169Z" fill="#F0F5F7" />
		<path d="M587.28 149.412C587.28 166.131 571.226 179.686 551.426 179.686H548.649C551.331 175.361 552.729 170.551 552.721 165.668C552.721 149.305 537.342 135.982 518.122 135.421C515.983 105.563 486.625 81.9006 450.722 81.9006C445.879 81.9006 441.159 82.3298 436.611 83.1481C448.895 72.3644 466.159 65.6494 485.283 65.6494C521.188 65.6494 550.543 89.3069 552.681 119.172C571.901 119.726 587.28 133.049 587.28 149.412Z" fill="#DDE9ED" />
		<path d="M534.802 115.818C533.627 115.817 532.487 115.482 531.565 114.867C530.642 114.253 529.991 113.394 529.717 112.43C529.108 110.295 528.284 108.208 527.252 106.192C526.979 105.659 526.833 105.086 526.822 104.506C526.811 103.925 526.936 103.348 527.189 102.808C527.442 102.268 527.819 101.776 528.298 101.359C528.776 100.942 529.348 100.609 529.979 100.378C531.254 99.9128 532.695 99.8939 533.986 100.326C535.277 100.757 536.313 101.604 536.865 102.68C538.134 105.163 539.149 107.732 539.899 110.361C540.577 112.738 538.842 115.123 536.031 115.695C535.629 115.776 535.216 115.818 534.802 115.818ZM522.047 96.1554C521.341 96.1562 520.642 96.0359 519.993 95.8019C519.344 95.5679 518.757 95.225 518.27 94.794C509.549 87.1222 497.835 82.8972 485.283 82.8972C483.894 82.8972 482.563 82.4314 481.581 81.6024C480.599 80.7733 480.047 79.6489 480.047 78.4764C480.047 77.304 480.599 76.1795 481.581 75.3505C482.563 74.5214 483.894 74.0557 485.283 74.0557C500.712 74.0557 515.111 79.2467 525.825 88.6736C526.536 89.2989 527.013 90.0867 527.198 90.9392C527.382 91.7917 527.266 92.6712 526.864 93.4684C526.461 94.2656 525.79 94.9454 524.934 95.4231C524.077 95.9008 523.074 96.1555 522.047 96.1554ZM322.457 136.42C323.988 115.072 344.974 98.1584 370.64 98.1584C391.343 98.1584 408.996 109.161 415.858 124.617C433.685 124.8 448.071 137.05 448.071 152.146C448.071 167.356 433.471 179.684 415.458 179.684H323.352C309.199 179.684 297.723 169.995 297.723 158.043C297.723 146.345 308.718 136.821 322.457 136.42Z" fill="#F0F5F7" />
		<path d="M448.071 152.148C448.071 167.226 433.711 179.473 415.908 179.679C421.245 174.772 424.501 168.236 424.501 161.056C424.501 145.962 410.118 133.71 392.284 133.527C385.426 118.073 367.772 107.066 347.067 107.066C344.621 107.066 342.22 107.223 339.869 107.52C348.222 101.672 358.943 98.1602 370.64 98.1602C391.342 98.1602 408.995 109.161 415.855 124.618C433.687 124.801 448.071 137.05 448.071 152.148Z" fill="#DDE9ED" />
	</g>
	<path d="M298.5 -101C341.854 -101 377 -65.9716 377 -22.7617C377 20.4481 341.854 55.4766 298.5 55.4766C255.146 55.4766 220 20.4481 220 -22.7617C220 -65.9716 255.146 -101 298.5 -101Z" fill="#F0CD3D" />
</svg>
