<svg width="589" height="140" viewBox="0 0 589 140" fill="none" xmlns="http://www.w3.org/2000/svg">
	<path d="M589 0H0V140H589V0Z" fill="#EC7263" />
	<path d="M495 -67.001C568.454 -67.001 628 -6.31451 628 68.546C628 143.407 568.454 204.093 495 204.093C421.546 204.093 362 143.407 362 68.546C362 -6.31451 421.546 -67.001 495 -67.001Z" fill="#EC8A5B" />
	<path d="M525 -22.15C582.99 -22.15 630 34.7434 630 104.925C630 175.107 582.99 232 525 232C467.01 232 420 175.107 420 104.925C420 34.7434 467.01 -22.15 525 -22.15Z" fill="#EE9B55" />
	<path d="M573.5 71.6164C616.854 71.6164 652 106.645 652 149.855C652 193.065 616.854 228.093 573.5 228.093C530.146 228.093 495 193.065 495 149.855C495 106.645 530.146 71.6164 573.5 71.6164Z" fill="#F0CD3D" />
</svg>
