<svg width="71" height="70" viewBox="0 0 71 70" fill="none" xmlns="http://www.w3.org/2000/svg">
	<path d="M52.9016 55.3015L55.8015 52.4016L61.5216 58.1216C66.5747 52.4412 70.0273 45.1172 70.5 37.0508H62.1602V32.9492H70.5C70.0273 24.8829 66.5746 17.5588 61.5216 11.8784L55.8015 17.5984L52.9016 14.6985L58.6216 8.97844C52.9413 3.92538 45.6172 0.472663 37.5508 0V30.0493L42.2532 25.3468L45.1532 28.2468L38.3999 35L49.2547 45.8547L46.3547 48.7547L37.5508 39.9507V70C45.6171 69.5273 52.9412 66.0746 58.6216 61.0216L52.9016 55.3015ZM33.4492 18.5937H21.0952C19.9728 22.9381 19.293 27.8192 19.1444 32.9492H33.4492V18.5937ZM33.4492 14.4922V0.214271C28.9584 1.46857 24.9804 6.99225 22.3552 14.4922H33.4492ZM16.8544 18.5937H4.77082C2.44888 22.9144 0.802992 27.7815 0.5 32.9492H15.0449C15.1797 27.8148 15.8076 22.9777 16.8544 18.5937ZM33.4492 69.7859V55.5079H22.3552C24.9804 63.0079 28.9584 68.5316 33.4492 69.7859ZM24.4903 1.85741C17.5639 4.16847 11.6129 8.7216 7.38105 14.4922H17.9984C19.6257 9.41655 21.8417 5.00953 24.4903 1.85741ZM16.8544 51.4063C15.8076 47.0224 15.1796 42.1852 15.0449 37.0508H0.5C0.802992 42.2185 2.44888 47.0856 4.77082 51.4063H16.8544ZM7.38105 55.5078C11.6128 61.2784 17.5639 65.8315 24.4903 68.1426C21.8417 64.9906 19.6257 60.5836 17.9984 55.5078H7.38105ZM21.0952 51.4063H33.4492V37.0508H19.1443C19.2932 42.1811 19.9727 47.0619 21.0952 51.4063Z" fill="#98C873" />
</svg>
