<svg width="22" height="22" viewBox="0 0 22 22" fill="none" xmlns="http://www.w3.org/2000/svg">
	<path d="M10.9724 20.8538C5.54576 20.8538 1.11826 16.4355 1.11826 10.9997C1.11826 5.56384 5.54576 1.14551 10.9724 1.14551C16.3991 1.14551 20.8266 5.56384 20.8266 10.9997C20.8266 16.4355 16.4083 20.8538 10.9724 20.8538ZM10.9724 2.52051C6.29742 2.52051 2.49326 6.32468 2.49326 10.9997C2.49326 15.6747 6.29742 19.4788 10.9724 19.4788C15.6474 19.4788 19.4516 15.6747 19.4516 10.9997C19.4516 6.32468 15.6474 2.52051 10.9724 2.52051Z" fill="#2A2927" />
	<path d="M9.17594 14.6215H7.98427C7.14094 14.6215 6.64594 14.1357 6.64594 13.3199V8.68155C6.64594 7.86572 7.1501 7.37988 7.98427 7.37988H9.16677C10.0101 7.37988 10.5051 7.86572 10.5051 8.68155V13.3199C10.5143 14.1357 10.0101 14.6215 9.17594 14.6215ZM8.02094 13.2465H9.13927V8.75488H8.0301L8.02094 13.2465Z" fill="#2A2927" />
	<path d="M14.0158 14.6215H12.8333C11.9899 14.6215 11.4949 14.1357 11.4949 13.3199V8.68155C11.4949 7.86572 11.9991 7.37988 12.8333 7.37988H14.0158C14.8591 7.37988 15.3541 7.86572 15.3541 8.68155V13.3199C15.3541 14.1357 14.8499 14.6215 14.0158 14.6215ZM12.8608 13.2465H13.9791V8.75488H12.8699L12.8608 13.2465Z" fill="#2A2927" />
</svg>
