<svg width="20" height="20" viewBox="0 0 20 20" fill="none" xmlns="http://www.w3.org/2000/svg">
	<path d="M8.96662 13.6422C8.61662 13.6422 8.29162 13.5589 7.99995 13.3922C7.33328 13.0089 6.94995 12.2256 6.94995 11.2339V8.76724C6.94995 7.7839 7.33328 6.99224 7.99995 6.6089C8.66662 6.22557 9.53328 6.2839 10.3916 6.7839L12.5333 8.01724C13.3833 8.5089 13.875 9.2339 13.875 10.0006C13.875 10.7672 13.3833 11.4922 12.5333 11.9839L10.3916 13.2172C9.90828 13.5006 9.41662 13.6422 8.96662 13.6422ZM8.97495 7.6089C8.84162 7.6089 8.72495 7.6339 8.63328 7.69224C8.36662 7.85057 8.20828 8.24224 8.20828 8.76724V11.2339C8.20828 11.7589 8.35828 12.1506 8.63328 12.3089C8.89995 12.4672 9.31662 12.4006 9.77495 12.1339L11.9166 10.9006C12.375 10.6339 12.6333 10.3089 12.6333 10.0006C12.6333 9.69224 12.375 9.3589 11.9166 9.10057L9.77495 7.86724C9.47495 7.69224 9.19995 7.6089 8.97495 7.6089Z" fill="#2A2927" />
	<path d="M10.0001 18.9587C5.05841 18.9587 1.04175 14.942 1.04175 10.0003C1.04175 5.05866 5.05841 1.04199 10.0001 1.04199C14.9417 1.04199 18.9584 5.05866 18.9584 10.0003C18.9584 14.942 14.9417 18.9587 10.0001 18.9587ZM10.0001 2.29199C5.75008 2.29199 2.29175 5.75033 2.29175 10.0003C2.29175 14.2503 5.75008 17.7087 10.0001 17.7087C14.2501 17.7087 17.7084 14.2503 17.7084 10.0003C17.7084 5.75033 14.2501 2.29199 10.0001 2.29199Z" fill="#2A2927" />
</svg>
