<svg width="20" height="20" viewBox="0 0 20 20" fill="none" xmlns="http://www.w3.org/2000/svg">
	<path d="M10.0001 18.9583C5.66681 18.9583 2.15015 15.4333 2.15015 11.1083C2.15015 6.78333 5.66681 3.25 10.0001 3.25C10.8918 3.25 11.7585 3.375 12.5918 3.63333C12.9251 3.73333 13.1085 4.08333 13.0085 4.41667C12.9085 4.75 12.5585 4.93333 12.2251 4.83333C11.5168 4.61667 10.7668 4.5 10.0001 4.5C6.35848 4.5 3.40015 7.45833 3.40015 11.1C3.40015 14.7417 6.35848 17.7 10.0001 17.7C13.6418 17.7 16.6001 14.7417 16.6001 11.1C16.6001 9.78333 16.2168 8.51667 15.4918 7.43333C15.3001 7.15 15.3751 6.75833 15.6668 6.56667C15.9501 6.375 16.3418 6.45 16.5335 6.74167C17.4001 8.03333 17.8585 9.54167 17.8585 11.1083C17.8501 15.4333 14.3335 18.9583 10.0001 18.9583Z" fill="#2A2927" />
	<path d="M13.4415 5.05818C13.2665 5.05818 13.0915 4.98318 12.9665 4.84151L10.5582 2.07485C10.3332 1.81651 10.3582 1.41651 10.6165 1.19151C10.8749 0.966515 11.2749 0.991515 11.4999 1.24985L13.9082 4.01651C14.1332 4.27485 14.1082 4.67485 13.8499 4.89985C13.7415 5.00818 13.5915 5.05818 13.4415 5.05818Z" fill="#2A2927" />
	<path d="M10.6336 7.10736C10.4419 7.10736 10.2503 7.01569 10.1253 6.84903C9.92526 6.57403 9.98359 6.18236 10.2586 5.97403L13.0669 3.92403C13.3419 3.71569 13.7336 3.78236 13.9419 4.05736C14.1503 4.33236 14.0836 4.72403 13.8086 4.93236L11.0003 6.99069C10.8919 7.07403 10.7669 7.10736 10.6336 7.10736Z" fill="#2A2927" />
</svg>
