<svg width="20" height="20" viewBox="0 0 20 20" fill="none" xmlns="http://www.w3.org/2000/svg">
	<path d="M9.99978 19.4114C15.1978 19.4114 19.4115 15.1976 19.4115 9.99965C19.4115 4.80168 15.1978 0.587891 9.99978 0.587891C4.8018 0.587891 0.588013 4.80168 0.588013 9.99965C0.588013 15.1976 4.8018 19.4114 9.99978 19.4114Z" fill="#FFD112" />
	<path d="M18.0241 5.01142C16.3506 7.6673 13.3821 9.43201 9.99944 9.43201C6.61679 9.43201 3.64826 7.6673 1.97473 5.01142C3.64532 2.35554 6.61679 0.587891 9.99944 0.587891C13.3821 0.587891 16.3536 2.35554 18.0241 5.01142Z" fill="#FFE955" />
	<path opacity="0.1" d="M15.873 17.0237C15.873 17.2326 13.2433 17.4017 10 17.4017C6.75678 17.4017 4.12708 17.2326 4.12708 17.0237C4.12708 16.8152 6.75678 16.6484 10 16.6484C13.2433 16.6484 15.873 16.8152 15.873 17.0237Z" fill="black" />
	<path d="M10.0007 15.0666C12.7743 15.0666 15.0228 12.8181 15.0228 10.0445C15.0228 7.27091 12.7743 5.02246 10.0007 5.02246C7.22709 5.02246 4.97864 7.27091 4.97864 10.0445C4.97864 12.8181 7.22709 15.0666 10.0007 15.0666Z" fill="white" />
	<path d="M12.6943 10.1483H9.99955C9.97225 10.1483 9.94606 10.1374 9.92676 10.1181C9.90745 10.0988 9.89661 10.0726 9.89661 10.0453C9.89661 10.018 9.90745 9.99184 9.92676 9.97253C9.94606 9.95323 9.97225 9.94238 9.99955 9.94238H12.6943C12.7216 9.94238 12.7477 9.95323 12.767 9.97253C12.7863 9.99184 12.7972 10.018 12.7972 10.0453C12.7972 10.0726 12.7863 10.0988 12.767 10.1181C12.7477 10.1374 12.7216 10.1483 12.6943 10.1483Z" fill="#FF3445" />
	<path d="M10.0603 10.1924L7.70266 12.5483C7.68039 12.5704 7.6521 12.5854 7.62132 12.5915C7.59055 12.5975 7.55867 12.5944 7.5297 12.5824C7.50072 12.5703 7.47594 12.55 7.45847 12.524C7.44099 12.498 7.43161 12.4673 7.43148 12.436C7.43148 12.3948 7.44619 12.3557 7.47825 12.3239L9.8359 9.96802C9.85047 9.95337 9.86779 9.94174 9.88687 9.9338C9.90595 9.92586 9.92641 9.92178 9.94707 9.92178C9.96774 9.92178 9.9882 9.92586 10.0073 9.9338C10.0264 9.94174 10.0437 9.95337 10.0582 9.96802C10.12 10.0298 10.1218 10.1307 10.0603 10.1924ZM8.20443 7.03626C8.18638 7.03634 8.16863 7.03165 8.15298 7.02266C8.13733 7.01368 8.12433 7.00071 8.11531 6.98508L7.76413 6.37655C7.75737 6.36485 7.75298 6.35193 7.75122 6.33853C7.74945 6.32513 7.75034 6.31152 7.75384 6.29846C7.75733 6.28541 7.76337 6.27317 7.77159 6.26244C7.77982 6.25172 7.79008 6.24272 7.80178 6.23596C7.81348 6.2292 7.8264 6.22482 7.8398 6.22305C7.8532 6.22128 7.86681 6.22217 7.87987 6.22567C7.89292 6.22917 7.90516 6.2352 7.91589 6.24342C7.92661 6.25165 7.93561 6.26191 7.94237 6.27361L8.29354 6.88214C8.3026 6.89776 8.30737 6.9155 8.30738 6.93356C8.30739 6.95162 8.30263 6.96936 8.29359 6.98499C8.28455 7.00063 8.27155 7.0136 8.25589 7.0226C8.24024 7.0316 8.22248 7.03631 8.20443 7.03626ZM12.1482 13.8674C12.1302 13.8674 12.1125 13.8626 12.0969 13.8536C12.0813 13.8446 12.0684 13.8316 12.0594 13.816L11.708 13.208C11.7012 13.1963 11.6968 13.1834 11.695 13.17C11.6933 13.1566 11.6942 13.143 11.6977 13.1299C11.7012 13.1169 11.7072 13.1046 11.7154 13.0939C11.7236 13.0832 11.7339 13.0742 11.7456 13.0674C11.7573 13.0607 11.7702 13.0563 11.7836 13.0545C11.797 13.0528 11.8106 13.0536 11.8237 13.0571C11.8367 13.0606 11.849 13.0667 11.8597 13.0749C11.8704 13.0831 11.8794 13.0934 11.8862 13.1051L12.2374 13.7133C12.2464 13.7289 12.2512 13.7467 12.2512 13.7647C12.2512 13.7828 12.2465 13.8005 12.2374 13.8162C12.2284 13.8318 12.2154 13.8448 12.1997 13.8538C12.1841 13.8628 12.1663 13.8675 12.1482 13.8674ZM6.88943 8.35126C6.87134 8.35135 6.85356 8.34657 6.83795 8.33743L6.22943 7.98655C6.21774 7.97979 6.2075 7.9708 6.1993 7.96008C6.19109 7.94937 6.18507 7.93714 6.18159 7.9241C6.17811 7.91106 6.17723 7.89746 6.179 7.88408C6.18077 7.8707 6.18517 7.85779 6.19193 7.84611C6.19868 7.83443 6.20768 7.82419 6.2184 7.81598C6.22911 7.80777 6.24134 7.80176 6.25438 7.79827C6.26742 7.79479 6.28102 7.79391 6.2944 7.79569C6.30778 7.79746 6.32068 7.80185 6.33237 7.80861L6.9406 8.15949C6.96027 8.17073 6.97567 8.18817 6.98439 8.20907C6.99312 8.22998 6.99468 8.25319 6.98884 8.27508C6.983 8.29697 6.97008 8.31631 6.9521 8.33009C6.93412 8.34387 6.91208 8.35131 6.88943 8.35126ZM13.7209 12.2954C13.7027 12.2955 13.6848 12.2907 13.6691 12.2816L13.0609 11.9304C13.0492 11.9236 13.039 11.9147 13.0307 11.904C13.0225 11.8933 13.0165 11.8811 13.013 11.868C13.0095 11.855 13.0086 11.8414 13.0104 11.828C13.0121 11.8147 13.0165 11.8018 13.0232 11.7901C13.03 11.7783 13.0389 11.768 13.0496 11.7597C13.0604 11.7515 13.0726 11.7454 13.0857 11.7419C13.0988 11.7384 13.1124 11.7375 13.1258 11.7393C13.1392 11.7412 13.1522 11.7456 13.1638 11.7524L13.7721 12.1036C13.7918 12.1149 13.8072 12.1323 13.8159 12.1533C13.8246 12.1742 13.8262 12.1974 13.8203 12.2193C13.8144 12.2412 13.8014 12.2606 13.7834 12.2743C13.7654 12.2881 13.7433 12.2955 13.7206 12.2954H13.7209ZM6.40795 10.148H5.7056C5.6783 10.148 5.65212 10.1372 5.63281 10.1179C5.61351 10.0986 5.60266 10.0724 5.60266 10.0451C5.60266 10.0178 5.61351 9.9916 5.63281 9.97229C5.65212 9.95299 5.6783 9.94214 5.7056 9.94214H6.40795C6.43526 9.94214 6.46144 9.95299 6.48075 9.97229C6.50005 9.9916 6.5109 10.0178 6.5109 10.0451C6.5109 10.0724 6.50005 10.0986 6.48075 10.1179C6.46144 10.1372 6.43526 10.148 6.40795 10.148ZM14.2959 10.148H13.5935C13.5662 10.148 13.5401 10.1372 13.5208 10.1179C13.5014 10.0986 13.4906 10.0724 13.4906 10.0451C13.4906 10.0178 13.5014 9.9916 13.5208 9.97229C13.5401 9.95299 13.5662 9.94214 13.5935 9.94214H14.2959C14.3232 9.94214 14.3494 9.95299 14.3687 9.97229C14.388 9.9916 14.3988 10.0178 14.3988 10.0451C14.3988 10.0724 14.388 10.0986 14.3687 10.1179C14.3494 10.1372 14.3232 10.148 14.2959 10.148ZM6.2809 12.2954C6.25822 12.2955 6.23614 12.2881 6.2181 12.2743C6.20007 12.2606 6.1871 12.2412 6.18122 12.2193C6.17534 12.1974 6.17688 12.1742 6.1856 12.1533C6.19432 12.1323 6.20973 12.1149 6.22943 12.1036L6.83795 11.7524C6.84963 11.7456 6.86253 11.7412 6.87591 11.7395C6.88929 11.7377 6.9029 11.7386 6.91594 11.7421C6.92898 11.7456 6.9412 11.7516 6.95189 11.7598C6.96259 11.7681 6.97154 11.7784 6.97825 11.7901C7.00678 11.8392 6.99001 11.9018 6.9406 11.9304L6.33237 12.2816C6.31676 12.2907 6.29898 12.2955 6.2809 12.2954ZM13.1121 8.35126C13.0894 8.35138 13.0673 8.34398 13.0493 8.33022C13.0312 8.31647 13.0183 8.29713 13.0124 8.27522C13.0065 8.25332 13.0081 8.23008 13.0168 8.20914C13.0255 8.18821 13.0409 8.17075 13.0606 8.15949L13.6694 7.80832C13.6811 7.80158 13.694 7.79721 13.7074 7.79546C13.7208 7.79371 13.7344 7.79462 13.7475 7.79813C13.7605 7.80164 13.7727 7.80768 13.7834 7.81591C13.7941 7.82415 13.8031 7.83441 13.8099 7.84611C13.8166 7.85781 13.821 7.87073 13.8227 7.88412C13.8245 7.89751 13.8236 7.91112 13.8201 7.92416C13.8165 7.9372 13.8105 7.94942 13.8023 7.96013C13.794 7.97083 13.7838 7.97981 13.7721 7.98655L13.1638 8.33743C13.1482 8.34657 13.1302 8.35135 13.1121 8.35126ZM7.85325 13.8674C7.83519 13.8675 7.81744 13.8628 7.80178 13.8538C7.78612 13.8448 7.77312 13.8318 7.76408 13.8162C7.75504 13.8005 7.75029 13.7828 7.75029 13.7647C7.7503 13.7467 7.75508 13.7289 7.76413 13.7133L8.11531 13.1051C8.12207 13.0934 8.13106 13.0832 8.14178 13.075C8.15249 13.0667 8.16472 13.0607 8.17776 13.0572C8.1908 13.0538 8.2044 13.0529 8.21778 13.0547C8.23116 13.0564 8.24407 13.0608 8.25575 13.0676C8.26743 13.0743 8.27767 13.0833 8.28588 13.094C8.29409 13.1048 8.3001 13.117 8.30359 13.13C8.30707 13.1431 8.30795 13.1567 8.30617 13.1701C8.3044 13.1834 8.30001 13.1963 8.29325 13.208L7.94237 13.816C7.93336 13.8316 7.92037 13.8446 7.90472 13.8537C7.88908 13.8627 7.87132 13.8675 7.85325 13.8674ZM11.7974 7.03626C11.7793 7.03631 11.7616 7.0316 11.7459 7.0226C11.7302 7.0136 11.7172 7.00063 11.7082 6.98499C11.6992 6.96936 11.6944 6.95162 11.6944 6.93356C11.6944 6.9155 11.6992 6.89776 11.7082 6.88214L12.0591 6.2739C12.0659 6.26222 12.0749 6.25198 12.0856 6.24378C12.0963 6.23557 12.1085 6.22955 12.1216 6.22607C12.1346 6.22259 12.1482 6.22171 12.1616 6.22348C12.175 6.22525 12.1879 6.22965 12.1996 6.2364C12.2113 6.24316 12.2215 6.25216 12.2297 6.26287C12.2379 6.27359 12.2439 6.28582 12.2474 6.29886C12.2509 6.3119 12.2518 6.3255 12.25 6.33888C12.2482 6.35226 12.2438 6.36516 12.2371 6.37685L11.8859 6.98508C11.8769 7.00071 11.8639 7.01368 11.8482 7.02266C11.8326 7.03165 11.8148 7.03634 11.7968 7.03626H11.7974ZM10.0009 14.443C9.97359 14.443 9.94741 14.4322 9.92811 14.4129C9.9088 14.3936 9.89795 14.3674 9.89795 14.3401V13.638C9.89795 13.6107 9.9088 13.5845 9.92811 13.5652C9.94741 13.5459 9.97359 13.5351 10.0009 13.5351C10.0282 13.5351 10.0544 13.5459 10.0737 13.5652C10.093 13.5845 10.1038 13.6107 10.1038 13.638V14.3404C10.1038 14.3677 10.093 14.3939 10.0737 14.4132C10.0544 14.4325 10.0282 14.4433 10.0009 14.4433V14.443Z" fill="#20273A" />
	<path d="M10.1996 7.31816V10.3396H9.79993V7.31816C9.79993 7.26512 9.821 7.21425 9.85851 7.17674C9.89601 7.13924 9.94688 7.11816 9.99993 7.11816C10.053 7.11816 10.1038 7.13924 10.1413 7.17674C10.1789 7.21425 10.1996 7.26512 10.1996 7.31816Z" fill="#20273A" />
	<path d="M10.0001 10.6485C10.3335 10.6485 10.6037 10.3783 10.6037 10.0449C10.6037 9.71162 10.3335 9.44141 10.0001 9.44141C9.66682 9.44141 9.39661 9.71162 9.39661 10.0449C9.39661 10.3783 9.66682 10.6485 10.0001 10.6485Z" fill="#20273A" />
	<path d="M10.001 10.3075C10.1461 10.3075 10.2637 10.1899 10.2637 10.0449C10.2637 9.89982 10.1461 9.78223 10.001 9.78223C9.85599 9.78223 9.7384 9.89982 9.7384 10.0449C9.7384 10.1899 9.85599 10.3075 10.001 10.3075Z" fill="white" />
	<path d="M16.2865 10.0436C16.2865 13.5142 13.4718 16.3319 9.99831 16.3319C6.52478 16.3319 3.71301 13.5142 3.71301 10.0436C3.71301 7.96423 4.72478 6.11717 6.2836 4.97305L7.07478 5.96423C6.4253 6.42775 5.89609 7.03986 5.53129 7.7495C5.16649 8.45914 4.97669 9.24573 4.97772 10.0436C4.97772 12.8172 7.22478 15.0672 9.99831 15.0672C12.7748 15.0672 15.0218 12.8172 15.0218 10.0436C15.0218 7.78188 13.5277 5.87011 11.4689 5.24364C11.0042 5.09953 10.5101 5.02305 9.99831 5.02305V6.04364C9.99831 6.25835 9.75713 6.37894 9.5836 6.25541L7.34537 4.63482C7.31187 4.61026 7.28463 4.57816 7.26586 4.54111C7.24708 4.50406 7.2373 4.46312 7.2373 4.42158C7.2373 4.38005 7.24708 4.3391 7.26586 4.30206C7.28463 4.26501 7.31187 4.23291 7.34537 4.20835L9.5836 2.58188C9.75713 2.45835 9.99831 2.58188 9.99831 2.79364V3.75835C10.5042 3.75835 10.9983 3.81717 11.4689 3.93188C14.2336 4.59364 16.2865 7.07894 16.2865 10.0436Z" fill="#1076E5" />
</svg>
