<?xml version="1.0" encoding="utf-8"?>
<!-- Generator: Adobe Illustrator 27.3.1, SVG Export Plug-In . SVG Version: 6.00 Build 0)  -->
<svg version="1.1" id="Layer_1" xmlns="http://www.w3.org/2000/svg" xmlns:xlink="http://www.w3.org/1999/xlink" x="0px" y="0px"
	 viewBox="0 0 91 91" style="enable-background:new 0 0 91 91;" xml:space="preserve">
<style type="text/css">
	.st0{fill:#2A2927;}
	.st1{fill:#E00000;}
	.st2{fill:url(#SVGID_1_);}
</style>
<path class="st0" d="M22,12.7l-1.1-1.6c-0.2,0.1-0.4,0.3-0.6,0.4l1.1,1.6C21.6,13,21.8,12.8,22,12.7z"/>
<path class="st0" d="M24,9.1l1,1.7c0.2-0.1,0.4-0.2,0.6-0.3l-1-1.7C24.4,8.9,24.2,9,24,9.1z"/>
<path class="st0" d="M33.2,7.1l-0.6-1.8c-0.2,0.1-0.4,0.1-0.6,0.2l0.6,1.8C32.7,7.2,33,7.2,33.2,7.1z"/>
<path class="st0" d="M27.9,7.1l0.8,1.8c0.2-0.1,0.4-0.2,0.6-0.3l-0.8-1.8C28.3,6.9,28.1,7,27.9,7.1z"/>
<path class="st0" d="M49,5.4c0.2,0,0.5,0,0.7,0.1l0.2-1.9c-0.2,0-0.5,0-0.7-0.1L49,5.4z"/>
<path class="st0" d="M37.2,6.1l-0.4-1.9c-0.2,0-0.4,0.1-0.7,0.1l0.4,1.9C36.8,6.2,37,6.1,37.2,6.1z"/>
<path class="st0" d="M40.5,3.6l0.2,1.9c0.2,0,0.5,0,0.7-0.1l-0.2-1.9C40.9,3.6,40.7,3.6,40.5,3.6z"/>
<path class="st0" d="M44.9,3.3v1.9h0.3h0.3V3.3h-0.3H44.9z"/>
<path class="st0" d="M16.9,14.3l1.3,1.4c0.2-0.2,0.3-0.3,0.5-0.5l-1.3-1.4C17.3,14,17.1,14.2,16.9,14.3z"/>
<path class="st0" d="M8.8,28.6l-1.8-0.8c-0.1,0.2-0.2,0.4-0.3,0.6l1.8,0.8C8.7,29.1,8.8,28.8,8.8,28.6z"/>
<path class="st0" d="M7.3,32.5l-1.8-0.6c-0.1,0.2-0.1,0.4-0.2,0.6l1.8,0.6C7.2,33,7.2,32.7,7.3,32.5z"/>
<path class="st0" d="M8.8,24.6l1.7,1c0.1-0.2,0.2-0.4,0.3-0.6l-1.7-1C9,24.2,8.9,24.4,8.8,24.6z"/>
<path class="st0" d="M13.9,17.4l1.4,1.3c0.2-0.2,0.3-0.3,0.5-0.5l-1.4-1.3C14.2,17.1,14,17.3,13.9,17.4z"/>
<path class="st0" d="M11.1,20.9l1.6,1.1c0.1-0.2,0.3-0.4,0.4-0.6l-1.6-1.1C11.4,20.5,11.3,20.7,11.1,20.9z"/>
<path class="st0" d="M87,44.9h-1.9c0,0.1,0,0.2,0,0.3c0,0.1,0,0.2,0,0.3H87c0-0.1,0-0.2,0-0.3C87,45.1,87,45,87,44.9z"/>
<path class="st0" d="M79.3,20.9c-0.1-0.2-0.3-0.4-0.4-0.6l-1.6,1.1c0.1,0.2,0.3,0.4,0.4,0.6L79.3,20.9z"/>
<path class="st0" d="M81.6,24.6c-0.1-0.2-0.2-0.4-0.3-0.6l-1.7,1c0.1,0.2,0.2,0.4,0.3,0.6L81.6,24.6z"/>
<path class="st0" d="M83.3,33.2l1.8-0.6c-0.1-0.2-0.1-0.4-0.2-0.6l-1.8,0.6C83.1,32.7,83.2,33,83.3,33.2z"/>
<path class="st0" d="M81.8,29.3l1.8-0.8c-0.1-0.2-0.2-0.4-0.3-0.6l-1.8,0.8C81.6,28.8,81.7,29.1,81.8,29.3z"/>
<path class="st0" d="M84.3,37.2l1.9-0.4c0-0.2-0.1-0.4-0.1-0.7l-1.9,0.4C84.2,36.8,84.3,37,84.3,37.2z"/>
<path class="st0" d="M5.3,45.2c0-0.1,0-0.2,0-0.3H3.3c0,0.1,0,0.2,0,0.3c0,0.1,0,0.2,0,0.3h1.9C5.3,45.4,5.3,45.3,5.3,45.2z"/>
<path class="st0" d="M84.9,41.4l1.9-0.2c0-0.2,0-0.5-0.1-0.7l-1.9,0.2C84.9,40.9,84.9,41.1,84.9,41.4z"/>
<path class="st0" d="M53.2,6.1c0.2,0,0.4,0.1,0.7,0.1l0.4-1.9c-0.2,0-0.4-0.1-0.7-0.1L53.2,6.1z"/>
<path class="st0" d="M62.5,7.1c-0.2-0.1-0.4-0.2-0.6-0.3l-0.8,1.8c0.2,0.1,0.4,0.2,0.6,0.3L62.5,7.1z"/>
<path class="st0" d="M58.5,5.5c-0.2-0.1-0.4-0.1-0.6-0.2l-0.6,1.8c0.2,0.1,0.4,0.1,0.6,0.2L58.5,5.5z"/>
<path class="st0" d="M64.9,10.4c0.2,0.1,0.4,0.2,0.6,0.3l1-1.7C66.2,9,66,8.9,65.8,8.8L64.9,10.4z"/>
<path class="st0" d="M74.6,18.2c0.2,0.2,0.3,0.3,0.5,0.5l1.4-1.3c-0.2-0.2-0.3-0.3-0.5-0.5L74.6,18.2z"/>
<path class="st0" d="M68.4,12.7c0.2,0.1,0.4,0.3,0.6,0.4l1.1-1.6c-0.2-0.1-0.4-0.3-0.6-0.4L68.4,12.7z"/>
<path class="st0" d="M71.7,15.3c0.2,0.2,0.3,0.3,0.5,0.5l1.3-1.4c-0.2-0.2-0.3-0.3-0.5-0.5L71.7,15.3z"/>
<path class="st0" d="M6.2,36.6l-1.9-0.4c0,0.2-0.1,0.4-0.1,0.7l1.9,0.4C6.1,37,6.2,36.8,6.2,36.6z"/>
<path class="st0" d="M61.1,81.8l0.8,1.8c0.2-0.1,0.4-0.2,0.6-0.3l-0.8-1.8C61.5,81.6,61.3,81.7,61.1,81.8z"/>
<path class="st0" d="M64.9,79.9l1,1.7c0.2-0.1,0.4-0.2,0.6-0.3l-1-1.7C65.3,79.7,65.1,79.8,64.9,79.9z"/>
<path class="st0" d="M68.4,77.7l1.1,1.6c0.2-0.1,0.4-0.3,0.6-0.4l-1.1-1.6C68.8,77.4,68.6,77.6,68.4,77.7z"/>
<path class="st0" d="M71.7,75.1l1.3,1.4c0.2-0.2,0.3-0.3,0.5-0.5l-1.3-1.4C72,74.8,71.8,74.9,71.7,75.1z"/>
<path class="st0" d="M44.9,85.1V87h0.3h0.3v-1.9h-0.3H44.9z"/>
<path class="st0" d="M57.2,83.3l0.6,1.8c0.2-0.1,0.4-0.1,0.6-0.2l-0.6-1.8C57.6,83.1,57.4,83.2,57.2,83.3z"/>
<path class="st0" d="M53.2,84.3l0.4,1.9c0.2,0,0.4-0.1,0.7-0.1l-0.4-1.9C53.6,84.2,53.4,84.3,53.2,84.3z"/>
<path class="st0" d="M49,84.9l0.2,1.9c0.2,0,0.5,0,0.7-0.1l-0.2-1.9C49.5,84.9,49.3,84.9,49,84.9z"/>
<path class="st0" d="M84.2,53.8l1.9,0.4c0-0.2,0.1-0.4,0.1-0.7l-1.9-0.4C84.3,53.4,84.2,53.6,84.2,53.8z"/>
<path class="st0" d="M84.9,49.7l1.9,0.2c0-0.2,0-0.5,0.1-0.7L84.9,49C84.9,49.3,84.9,49.5,84.9,49.7z"/>
<path class="st0" d="M83.1,57.9l1.8,0.6c0.1-0.2,0.1-0.4,0.2-0.6l-1.8-0.6C83.2,57.4,83.1,57.6,83.1,57.9z"/>
<path class="st0" d="M77.3,68.9l1.6,1.1c0.1-0.2,0.3-0.4,0.4-0.6l-1.6-1.1C77.6,68.6,77.4,68.8,77.3,68.9z"/>
<path class="st0" d="M74.6,72.2l1.4,1.3c0.2-0.2,0.3-0.3,0.5-0.5l-1.4-1.3C74.9,71.8,74.8,72,74.6,72.2z"/>
<path class="st0" d="M81.5,61.7l1.8,0.8c0.1-0.2,0.2-0.4,0.3-0.6l-1.8-0.8C81.7,61.3,81.6,61.5,81.5,61.7z"/>
<path class="st0" d="M79.6,65.5l1.7,1c0.1-0.2,0.2-0.4,0.3-0.6l-1.7-1C79.8,65.1,79.7,65.3,79.6,65.5z"/>
<path class="st0" d="M20.3,78.9c0.2,0.1,0.4,0.3,0.6,0.4l1.1-1.6c-0.2-0.1-0.4-0.3-0.6-0.4L20.3,78.9z"/>
<path class="st0" d="M13.9,72.9c0.2,0.2,0.3,0.3,0.5,0.5l1.4-1.3c-0.2-0.2-0.3-0.3-0.5-0.5L13.9,72.9z"/>
<path class="st0" d="M8.6,61.1l-1.8,0.8c0.1,0.2,0.2,0.4,0.3,0.6l1.8-0.8C8.8,61.5,8.7,61.3,8.6,61.1z"/>
<path class="st0" d="M11.1,69.5c0.1,0.2,0.3,0.4,0.4,0.6l1.6-1.1c-0.1-0.2-0.3-0.4-0.4-0.6L11.1,69.5z"/>
<path class="st0" d="M8.8,65.8C8.9,66,9,66.2,9.1,66.4l1.7-1c-0.1-0.2-0.2-0.4-0.3-0.6L8.8,65.8z"/>
<path class="st0" d="M7.1,57.2l-1.8,0.6c0.1,0.2,0.1,0.4,0.2,0.6l1.8-0.6C7.2,57.6,7.2,57.4,7.1,57.2z"/>
<path class="st0" d="M5.4,49l-1.9,0.2c0,0.2,0,0.5,0.1,0.7l1.9-0.2C5.5,49.5,5.5,49.3,5.4,49z"/>
<path class="st0" d="M6.1,53.2l-1.9,0.4c0,0.2,0.1,0.4,0.1,0.7l1.9-0.4C6.2,53.6,6.1,53.4,6.1,53.2z"/>
<path class="st0" d="M40.5,86.8c0.2,0,0.5,0,0.7,0.1l0.2-1.9c-0.2,0-0.5,0-0.7-0.1L40.5,86.8z"/>
<path class="st0" d="M16.9,76.1c0.2,0.2,0.3,0.3,0.5,0.5l1.3-1.4c-0.2-0.2-0.3-0.3-0.5-0.5L16.9,76.1z"/>
<path class="st0" d="M36.2,86.1c0.2,0,0.4,0.1,0.7,0.1l0.4-1.9c-0.2,0-0.4-0.1-0.7-0.1L36.2,86.1z"/>
<path class="st0" d="M27.9,83.3c0.2,0.1,0.4,0.2,0.6,0.3l0.8-1.8c-0.2-0.1-0.4-0.2-0.6-0.3L27.9,83.3z"/>
<path class="st0" d="M31.9,84.9c0.2,0.1,0.4,0.1,0.6,0.2l0.6-1.8c-0.2-0.1-0.4-0.1-0.6-0.2L31.9,84.9z"/>
<path class="st0" d="M5.5,40.7l-1.9-0.2c0,0.2,0,0.5-0.1,0.7l1.9,0.2C5.5,41.1,5.5,40.9,5.5,40.7z"/>
<path class="st0" d="M24,81.3c0.2,0.1,0.4,0.2,0.6,0.3l1-1.7c-0.2-0.1-0.4-0.2-0.6-0.3L24,81.3z"/>
<path class="st0" d="M23.6,9.3L24,9.1c0.2-0.1,0.4-0.2,0.6-0.3l0.4-0.2l1.4,2.4L26,11.2c-0.2,0.1-0.4,0.2-0.6,0.3L25,11.8L23.6,9.3z
	"/>
<path class="st0" d="M45.5,6.1h-0.6h-0.5V3.3l0.5,0h0.3h0.3H46v2.8L45.5,6.1z"/>
<path class="st0" d="M8.6,24.9l0.2-0.4C8.9,24.4,9,24.2,9.1,24l0.2-0.4l2.4,1.4l-0.2,0.4c-0.1,0.2-0.2,0.4-0.3,0.6L11,26.3L8.6,24.9
	z"/>
<path class="st0" d="M84.2,46v-0.5c0-0.1,0-0.2,0-0.3s0-0.2,0-0.3v-0.5H87l0,0.5c0,0.1,0,0.2,0,0.3s0,0.2,0,0.3l0,0.5L84.2,46z"/>
<path class="st0" d="M79.2,26c-0.1-0.2-0.2-0.4-0.3-0.6L78.6,25l2.4-1.4l0.2,0.4c0.1,0.2,0.2,0.4,0.3,0.6l0.2,0.4l-2.4,1.4L79.2,26z
	"/>
<path class="st0" d="M3.4,46l0-0.5c0-0.1,0-0.2,0-0.3s0-0.2,0-0.3v-0.5h2.8v0.5c0,0.1,0,0.2,0,0.3s0,0.2,0,0.3V46L3.4,46z"/>
<path class="st0" d="M65,11.5c-0.2-0.1-0.4-0.2-0.6-0.3L64,11l1.4-2.4l0.4,0.2C66,8.9,66.2,9,66.4,9.1l0.4,0.2l-1.4,2.4L65,11.5z"/>
<path class="st0" d="M64,79.4l0.4-0.2c0.2-0.1,0.4-0.2,0.6-0.3l0.4-0.2l1.4,2.4l-0.4,0.2c-0.2,0.1-0.4,0.2-0.6,0.3l-0.4,0.2L64,79.4
	z"/>
<path class="st0" d="M45.2,87h-0.3l-0.5,0v-2.8h0.5h0.5H46V87l-0.5,0L45.2,87z"/>
<path class="st0" d="M78.6,65.4l0.2-0.4c0.1-0.2,0.2-0.4,0.3-0.6l0.2-0.4l2.4,1.4l-0.2,0.4c-0.1,0.2-0.2,0.4-0.3,0.6L81,66.8
	L78.6,65.4z"/>
<path class="st0" d="M9.1,66.4C9,66.2,8.9,66,8.8,65.8l-0.2-0.4L11,64l0.2,0.4c0.1,0.2,0.2,0.4,0.3,0.6l0.2,0.4l-2.4,1.4L9.1,66.4z"
	/>
<path class="st0" d="M24.6,81.6c-0.2-0.1-0.4-0.2-0.6-0.3L23.6,81l1.4-2.4l0.4,0.2c0.2,0.1,0.4,0.2,0.6,0.3l0.4,0.2l-1.4,2.4
	L24.6,81.6z"/>
<path class="st0" d="M60.5,19H62v-4.3l0.2-0.7l-0.5,0.6l-1,0.7l-0.6-0.8l2.5-2h0.8V19h1.5v1.2h-4.3V19z"/>
<path class="st0" d="M77.3,26.4c0,0.4-0.1,0.8-0.2,1.1c-0.1,0.4-0.3,0.8-0.5,1.1c-0.2,0.4-0.4,0.7-0.7,1c-0.2,0.3-0.5,0.6-0.7,0.9
	l-0.6,0.4v0.1l0.8-0.2h2.1v1.2h-4.6v-0.7c0.2-0.2,0.4-0.4,0.6-0.6c0.2-0.2,0.4-0.5,0.7-0.8c0.2-0.3,0.4-0.6,0.6-0.8
	c0.2-0.3,0.4-0.6,0.6-0.9c0.2-0.3,0.3-0.6,0.4-0.9c0.1-0.3,0.1-0.5,0.1-0.8c0-0.3-0.1-0.5-0.3-0.7c-0.2-0.2-0.4-0.3-0.8-0.3
	c-0.2,0-0.5,0.1-0.7,0.1c-0.2,0.1-0.4,0.2-0.6,0.4l-0.6-1c0.3-0.2,0.6-0.4,1-0.6c0.4-0.1,0.8-0.2,1.3-0.2c0.3,0,0.6,0,0.9,0.1
	c0.2,0.1,0.5,0.2,0.7,0.4c0.2,0.2,0.3,0.4,0.4,0.6C77.2,25.8,77.3,26.1,77.3,26.4z"/>
<path class="st0" d="M80,47.9c0.4,0,0.8-0.1,1-0.4c0.1-0.1,0.2-0.2,0.3-0.4c0.1-0.1,0.1-0.3,0.1-0.5c0-0.4-0.1-0.7-0.4-0.9
	c-0.2-0.2-0.6-0.3-1.2-0.3H79v-0.7l1.3-1.8l0.6-0.5l-0.9,0.1h-1.8v-1.2h4.1v0.8l-1.5,2l-0.5,0.3v0.1l0.5-0.1c0.2,0,0.5,0.1,0.7,0.2
	c0.2,0.1,0.4,0.2,0.6,0.4c0.2,0.2,0.3,0.4,0.4,0.7c0.1,0.3,0.2,0.6,0.2,0.9c0,0.4-0.1,0.8-0.2,1.1c-0.1,0.3-0.3,0.6-0.6,0.8
	c-0.3,0.2-0.6,0.4-0.9,0.5c-0.3,0.1-0.7,0.2-1.1,0.2c-0.3,0-0.7,0-1-0.1c-0.3,0-0.6-0.1-0.8-0.2l0.4-1.2C79,47.8,79.5,47.9,80,47.9
	L80,47.9z"/>
<path class="st0" d="M77.3,64h-1.2v2.1h-1.3V64h-3.3v-0.8l3.4-4.7h1.2v4.4h1.2L77.3,64z M74.8,61.2l0.1-0.9h0L74.5,61l-1.1,1.5
	l-0.5,0.4l0.7-0.1h1.3V61.2z"/>
<path class="st0" d="M62.1,76.8c0.5,0,0.8-0.1,1.1-0.3c0.3-0.2,0.4-0.5,0.4-1c0-0.4-0.1-0.8-0.4-1c-0.3-0.2-0.7-0.3-1.3-0.3l-0.9,0
	v-4h3.7v1.3h-2.5v1.5l0.4,0c0.3,0,0.7,0.1,1,0.2c0.3,0.1,0.5,0.3,0.7,0.5c0.2,0.2,0.4,0.5,0.5,0.7c0.1,0.3,0.2,0.6,0.2,1
	c0,0.4-0.1,0.8-0.2,1.1c-0.1,0.3-0.3,0.6-0.6,0.8c-0.3,0.2-0.6,0.4-0.9,0.5C62.9,78,62.5,78,62.1,78c-0.3,0-0.6,0-0.9-0.1
	c-0.3,0-0.5-0.1-0.7-0.2l0.4-1.2c0.2,0.1,0.4,0.1,0.5,0.2C61.6,76.8,61.9,76.8,62.1,76.8z"/>
<path class="st0" d="M47.7,80c0,0.3-0.1,0.7-0.2,1c-0.1,0.3-0.3,0.6-0.5,0.8s-0.5,0.4-0.8,0.5c-0.3,0.1-0.7,0.2-1,0.2
	c-0.4,0-0.7-0.1-1-0.2c-0.3-0.1-0.6-0.3-0.8-0.5c-0.2-0.3-0.4-0.6-0.5-0.9c-0.1-0.4-0.2-0.8-0.2-1.3c0-0.7,0.1-1.3,0.3-1.9
	c0.2-0.5,0.5-1.1,0.8-1.5c0.3-0.4,0.8-0.8,1.2-1c0.5-0.3,1-0.4,1.5-0.5l0.3,1.1c-0.3,0.1-0.7,0.2-1,0.3c-0.3,0.2-0.6,0.4-0.8,0.6
	c-0.2,0.2-0.4,0.5-0.6,0.8c-0.2,0.3-0.3,0.6-0.3,0.9c0.2-0.2,0.3-0.3,0.6-0.5c0.3-0.1,0.6-0.2,0.9-0.2c0.3,0,0.6,0,0.9,0.2
	c0.3,0.1,0.5,0.3,0.7,0.5c0.2,0.2,0.4,0.5,0.5,0.7C47.7,79.4,47.7,79.7,47.7,80z M46.4,80.1c0-0.8-0.4-1.2-1.2-1.2
	c-0.3,0-0.5,0.1-0.7,0.2c-0.2,0.1-0.3,0.3-0.4,0.5c0,0.1,0,0.1,0,0.2v0.2c0,0.2,0,0.3,0.1,0.5c0,0.2,0.1,0.3,0.2,0.5
	c0.1,0.1,0.2,0.3,0.4,0.3c0.2,0.1,0.3,0.1,0.5,0.1c0.2,0,0.3,0,0.5-0.1c0.1-0.1,0.3-0.2,0.4-0.3C46.3,80.7,46.4,80.4,46.4,80.1
	L46.4,80.1z"/>
<path class="st0" d="M27.5,78l2.5-5.8l0.5-0.5l-0.7,0.1H27v-1.3h4.9v0.4l-3,7.2H27.5z"/>
<path class="st0" d="M13,63.8c0-0.2,0-0.5,0.1-0.7c0.1-0.2,0.2-0.4,0.3-0.5c0.1-0.2,0.3-0.3,0.4-0.4c0.2-0.1,0.3-0.3,0.5-0.4
	c-0.3-0.2-0.6-0.5-0.8-0.8c-0.2-0.3-0.3-0.7-0.3-1.1c0-0.3,0.1-0.5,0.2-0.8c0.1-0.2,0.3-0.5,0.5-0.6c0.2-0.2,0.5-0.3,0.7-0.4
	c0.3-0.1,0.6-0.2,1-0.1c0.3,0,0.6,0,0.9,0.1c0.3,0.1,0.5,0.2,0.7,0.4c0.2,0.2,0.3,0.4,0.4,0.6c0.1,0.2,0.2,0.5,0.2,0.8
	c0,0.4-0.1,0.8-0.3,1.1c-0.2,0.3-0.5,0.6-0.8,0.8c0.4,0.2,0.7,0.5,1,0.8c0.2,0.3,0.3,0.7,0.3,1.2c0,0.3-0.1,0.6-0.2,0.9
	c-0.1,0.3-0.3,0.5-0.5,0.7c-0.2,0.2-0.5,0.3-0.8,0.4c-0.3,0.1-0.7,0.2-1,0.2c-0.3,0-0.7,0-1-0.1c-0.3-0.1-0.5-0.2-0.7-0.4
	c-0.2-0.2-0.4-0.4-0.5-0.6C13,64.4,13,64.1,13,63.8z M16.5,63.7c0-0.2,0-0.3-0.1-0.5c-0.1-0.1-0.2-0.3-0.3-0.4
	c-0.1-0.1-0.3-0.2-0.4-0.3c-0.2-0.1-0.3-0.2-0.5-0.3c-0.3,0.2-0.6,0.4-0.7,0.6c-0.1,0.2-0.2,0.4-0.2,0.7c0,0.1,0,0.3,0.1,0.4
	c0.1,0.1,0.1,0.2,0.2,0.3c0.2,0.2,0.5,0.3,0.8,0.3c0.3,0,0.6-0.1,0.8-0.2C16.4,64.2,16.5,64,16.5,63.7z M14.5,60
	c0,0.2,0,0.3,0.1,0.5c0.1,0.1,0.2,0.2,0.3,0.3c0.1,0.1,0.2,0.2,0.4,0.3c0.1,0.1,0.3,0.2,0.4,0.2c0.4-0.4,0.7-0.8,0.7-1.2
	c0-0.3-0.1-0.5-0.3-0.7c-0.2-0.2-0.4-0.2-0.6-0.2c-0.3,0-0.6,0.1-0.7,0.2C14.6,59.5,14.5,59.7,14.5,60z"/>
<path class="st0" d="M7.6,43.8c0-0.3,0.1-0.7,0.2-1C7.9,42.5,8,42.2,8.3,42c0.2-0.2,0.5-0.4,0.8-0.5c0.3-0.1,0.7-0.2,1.1-0.2
	c0.8,0,1.5,0.2,1.9,0.7c0.5,0.5,0.7,1.2,0.7,2.1c0,0.8-0.1,1.6-0.3,2.2c-0.2,0.6-0.5,1.1-0.9,1.5c-0.3,0.4-0.8,0.7-1.2,0.9
	c-0.5,0.2-1,0.3-1.5,0.4L8.5,48c0.4,0,0.7-0.1,1.1-0.3c0.3-0.1,0.6-0.3,0.8-0.5c0.2-0.2,0.4-0.5,0.5-0.7c0.1-0.3,0.2-0.6,0.3-0.9
	c-0.2,0.2-0.3,0.3-0.6,0.4c-0.3,0.1-0.5,0.1-0.8,0.1c-0.3,0-0.6,0-0.8-0.1c-0.3-0.1-0.5-0.2-0.7-0.4c-0.2-0.2-0.4-0.4-0.5-0.7
	C7.7,44.5,7.6,44.1,7.6,43.8z M9,43.7c0,0.4,0.1,0.7,0.3,0.9c0.2,0.2,0.5,0.3,0.9,0.3c0.2,0,0.5,0,0.7-0.1c0.2-0.1,0.3-0.2,0.4-0.3
	c0-0.1,0-0.3,0-0.4c0-0.2,0-0.4-0.1-0.6c0-0.2-0.1-0.4-0.2-0.5c-0.1-0.2-0.3-0.3-0.4-0.4c-0.2-0.1-0.4-0.1-0.6-0.1
	c-0.4,0-0.6,0.1-0.8,0.3C9.1,43,9,43.3,9,43.7z"/>
<path class="st0" d="M12.6,32.2h1.5v-4.3l0.2-0.7l-0.5,0.6l-1,0.7l-0.6-0.8l2.5-2h0.8v6.5h1.5v1.2h-4.3V32.2z"/>
<path class="st0" d="M16.7,29.6c0-1.3,0.2-2.3,0.7-3c0.5-0.6,1.1-1,2-1c0.9,0,1.6,0.3,2,1c0.4,0.6,0.6,1.6,0.6,3
	c0,1.3-0.2,2.3-0.7,3c-0.5,0.7-1.1,1-2,1c-0.9,0-1.6-0.3-2-1C16.9,31.8,16.7,30.8,16.7,29.6z M18.1,29.6c0,0.9,0.1,1.6,0.3,2
	c0.2,0.5,0.5,0.7,0.9,0.7c0.4,0,0.7-0.2,0.9-0.7c0.2-0.4,0.3-1.1,0.3-2.1c0-0.9-0.1-1.6-0.3-2c-0.2-0.5-0.5-0.7-1-0.7
	c-0.4,0-0.7,0.2-0.9,0.7C18.2,27.9,18.1,28.6,18.1,29.6z"/>
<path class="st0" d="M24.5,19.2H26v-4.3l0.2-0.7l-0.5,0.6l-1,0.7l-0.6-0.8l2.5-2h0.8v6.5h1.5v1.2h-4.3V19.2z"/>
<path class="st0" d="M29.1,19.2h1.5v-4.3l0.2-0.7l-0.5,0.6l-1,0.7l-0.6-0.8l2.5-2H32v6.5h1.5v1.2h-4.3V19.2z"/>
<path class="st0" d="M40.8,14.2h1.5V10l0.2-0.7L42,9.9l-1,0.7l-0.6-0.8l2.5-2h0.8v6.5h1.5v1.2h-4.3V14.2z"/>
<path class="st0" d="M49.8,9.7c0,0.4-0.1,0.8-0.2,1.1c-0.1,0.4-0.3,0.8-0.5,1.1c-0.2,0.4-0.4,0.7-0.7,1c-0.2,0.3-0.5,0.6-0.7,0.9
	l-0.6,0.4v0.1l0.8-0.2H50v1.2h-4.6v-0.7c0.2-0.2,0.4-0.4,0.6-0.6c0.2-0.2,0.4-0.5,0.7-0.8c0.2-0.3,0.4-0.6,0.6-0.8
	c0.2-0.3,0.4-0.6,0.6-0.9c0.2-0.3,0.3-0.6,0.4-0.9c0.1-0.3,0.1-0.5,0.1-0.8c0-0.3-0.1-0.5-0.3-0.7C48,9,47.7,8.9,47.4,8.9
	c-0.2,0-0.5,0.1-0.7,0.1c-0.2,0.1-0.4,0.2-0.6,0.4l-0.6-1c0.3-0.2,0.6-0.4,1-0.6c0.4-0.1,0.8-0.2,1.3-0.2c0.3,0,0.6,0,0.9,0.1
	C48.8,7.9,49,8,49.2,8.2c0.2,0.2,0.3,0.4,0.4,0.6C49.8,9.1,49.8,9.4,49.8,9.7z"/>
<path id="hour" class="st0" d="M41.8,49.1l-1.5-2.2L67.4,29l1.1,1.6L41.8,49.1z"/>
<path id="minute" class="st0" d="M50.2,45.5l-0.4,1.8L5.9,36.6l0.3-1.2L50.2,45.5z"/>
<path id="second" class="st1" d="M49.6,50.8l-1.1,0.7L22.6,11.2l0.5-0.3L49.6,50.8z"/>
<radialGradient id="SVGID_1_" cx="-291.7191" cy="249.6687" r="1" gradientTransform="matrix(1.4688 0 0 -1.4688 473.6683 411.9035)" gradientUnits="userSpaceOnUse">
	<stop  offset="0" style="stop-color:#FFCFCF"/>
	<stop  offset="1" style="stop-color:#DB0000"/>
</radialGradient>
<path class="st2" d="M45.2,46.7c0.8,0,1.5-0.7,1.5-1.5c0-0.8-0.7-1.5-1.5-1.5c-0.8,0-1.5,0.7-1.5,1.5C43.7,46,44.4,46.7,45.2,46.7z"
	/>
</svg>
