<svg width="18" height="20" viewBox="0 0 18 20" fill="none" xmlns="http://www.w3.org/2000/svg">
	<path d="M16.6636 1.05933H10.4463C10.3368 1.05933 10.2471 1.1489 10.2471 1.25843V3.73226H10.2989C10.4085 3.73226 10.4982 3.82186 10.4982 3.93136V5.07624H10.8927C11.0023 5.07624 11.0919 5.16585 11.0919 5.27538V6.26292H11.5712C11.6808 6.26292 11.7705 6.35253 11.7705 6.46202V18.9187H12.3558C12.4654 18.9187 12.555 19.0083 12.555 19.1178V19.707H16.6636C16.7732 19.707 16.8629 19.6174 16.8629 19.5078V1.25847C16.8629 1.14894 16.7732 1.05933 16.6636 1.05933Z" fill="#FB8276" />
	<path opacity="0.1" d="M10.2989 3.73226C10.4085 3.73226 10.4982 3.82187 10.4982 3.93136V5.07624H10.8926C11.0022 5.07624 11.0918 5.16585 11.0918 5.27538V6.26292H11.3238V1.25843C11.3238 1.1489 11.4135 1.05933 11.5231 1.05933H10.4463C10.3368 1.05933 10.2471 1.1489 10.2471 1.25843V3.73226H10.2989Z" fill="black" />
	<path d="M15.3284 2.43799H16.0058C16.0835 2.43799 16.1581 2.40712 16.213 2.35218C16.2679 2.29724 16.2988 2.22272 16.2988 2.14502C16.2988 2.06732 16.2679 1.9928 16.213 1.93786C16.1581 1.88292 16.0835 1.85205 16.0058 1.85205H15.3284C15.2507 1.85205 15.1762 1.88292 15.1213 1.93786C15.0663 1.9928 15.0354 2.06732 15.0354 2.14502C15.0354 2.22272 15.0663 2.29724 15.1213 2.35218C15.1762 2.40712 15.2507 2.43799 15.3284 2.43799ZM11.7819 1.85205H11.1044C11.0267 1.85205 10.9522 1.88292 10.8973 1.93786C10.8423 1.9928 10.8115 2.06732 10.8115 2.14502C10.8115 2.22272 10.8423 2.29724 10.8973 2.35218C10.9522 2.40712 11.0267 2.43799 11.1044 2.43799H11.7819C11.8596 2.43799 11.9341 2.40712 11.989 2.35218C12.044 2.29724 12.0748 2.22272 12.0748 2.14502C12.0748 2.06732 12.044 1.9928 11.989 1.93786C11.9341 1.88292 11.8596 1.85205 11.7819 1.85205ZM16.0058 2.76795H15.3284C15.2507 2.76795 15.1762 2.79882 15.1213 2.85376C15.0663 2.9087 15.0354 2.98322 15.0354 3.06092C15.0354 3.13862 15.0663 3.21314 15.1213 3.26808C15.1762 3.32302 15.2507 3.35389 15.3284 3.35389H16.0058C16.0835 3.35389 16.1581 3.32302 16.213 3.26808C16.2679 3.21314 16.2988 3.13862 16.2988 3.06092C16.2988 2.98322 16.2679 2.9087 16.213 2.85376C16.1581 2.79882 16.0835 2.76795 16.0058 2.76795ZM11.7819 2.76795H11.1044C11.0267 2.76795 10.9522 2.79882 10.8973 2.85376C10.8423 2.9087 10.8115 2.98322 10.8115 3.06092C10.8115 3.13862 10.8423 3.21314 10.8973 3.26808C10.9522 3.32302 11.0267 3.35389 11.1044 3.35389H11.7819C11.8596 3.35389 11.9341 3.32302 11.989 3.26808C12.044 3.21314 12.0748 3.13862 12.0748 3.06092C12.0748 2.98322 12.044 2.9087 11.989 2.85376C11.9341 2.79882 11.8596 2.76795 11.7819 2.76795ZM16.0058 3.68389H15.3284C15.2507 3.68389 15.1762 3.71475 15.1213 3.7697C15.0663 3.82464 15.0354 3.89916 15.0354 3.97686C15.0354 4.05456 15.0663 4.12907 15.1213 4.18402C15.1762 4.23896 15.2507 4.26982 15.3284 4.26982H16.0058C16.0835 4.26982 16.1581 4.23896 16.213 4.18402C16.2679 4.12907 16.2988 4.05456 16.2988 3.97686C16.2988 3.89916 16.2679 3.82464 16.213 3.7697C16.1581 3.71475 16.0835 3.68389 16.0058 3.68389ZM11.7819 3.68389H11.1044C11.0267 3.68389 10.9522 3.71475 10.8973 3.7697C10.8423 3.82464 10.8115 3.89916 10.8115 3.97686C10.8115 4.05456 10.8423 4.12907 10.8973 4.18402C10.9522 4.23896 11.0267 4.26982 11.1044 4.26982H11.7819C11.8596 4.26982 11.9341 4.23896 11.989 4.18402C12.044 4.12907 12.0748 4.05456 12.0748 3.97686C12.0748 3.89916 12.044 3.82464 11.989 3.7697C11.9341 3.71475 11.8596 3.68389 11.7819 3.68389ZM16.0058 4.59982H15.3284C15.2507 4.59982 15.1762 4.63069 15.1213 4.68563C15.0663 4.74058 15.0354 4.81509 15.0354 4.89279C15.0354 4.97049 15.0663 5.04501 15.1213 5.09995C15.1762 5.1549 15.2507 5.18576 15.3284 5.18576H16.0058C16.0835 5.18576 16.1581 5.1549 16.213 5.09995C16.2679 5.04501 16.2988 4.97049 16.2988 4.89279C16.2988 4.81509 16.2679 4.74058 16.213 4.68563C16.1581 4.63069 16.0835 4.59982 16.0058 4.59982ZM11.7819 4.59982H11.1044C11.0267 4.59982 10.9522 4.63069 10.8973 4.68563C10.8423 4.74058 10.8115 4.81509 10.8115 4.89279C10.8115 4.97049 10.8423 5.04501 10.8973 5.09995C10.9522 5.1549 11.0267 5.18576 11.1044 5.18576H11.7819C11.8596 5.18576 11.9341 5.1549 11.989 5.09995C12.044 5.04501 12.0748 4.97049 12.0748 4.89279C12.0748 4.81509 12.044 4.74058 11.989 4.68563C11.9341 4.63069 11.8596 4.59982 11.7819 4.59982ZM16.0058 5.51572H15.3284C15.2507 5.51572 15.1762 5.54659 15.1213 5.60153C15.0663 5.65647 15.0354 5.73099 15.0354 5.80869C15.0354 5.88639 15.0663 5.96091 15.1213 6.01585C15.1762 6.07079 15.2507 6.10166 15.3284 6.10166H16.0058C16.0835 6.10166 16.1581 6.07079 16.213 6.01585C16.2679 5.96091 16.2988 5.88639 16.2988 5.80869C16.2988 5.73099 16.2679 5.65647 16.213 5.60153C16.1581 5.54659 16.0835 5.51572 16.0058 5.51572ZM11.7819 5.51572H11.1044C11.0267 5.51572 10.9522 5.54659 10.8973 5.60153C10.8423 5.65647 10.8115 5.73099 10.8115 5.80869C10.8115 5.88639 10.8423 5.96091 10.8973 6.01585C10.9522 6.07079 11.0267 6.10166 11.1044 6.10166H11.7819C11.8596 6.10166 11.9341 6.07079 11.989 6.01585C12.044 5.96091 12.0748 5.88639 12.0748 5.80869C12.0748 5.73099 12.044 5.65647 11.989 5.60153C11.9341 5.54659 11.8596 5.51572 11.7819 5.51572ZM16.0058 6.43166H15.3284C15.2507 6.43166 15.1762 6.46253 15.1213 6.51747C15.0663 6.57241 15.0354 6.64693 15.0354 6.72463C15.0354 6.80233 15.0663 6.87685 15.1213 6.93179C15.1762 6.98673 15.2507 7.0176 15.3284 7.0176H16.0058C16.0835 7.0176 16.1581 6.98673 16.213 6.93179C16.2679 6.87685 16.2988 6.80233 16.2988 6.72463C16.2988 6.64693 16.2679 6.57241 16.213 6.51747C16.1581 6.46253 16.0835 6.43166 16.0058 6.43166ZM11.7706 6.46193V7.0176H11.7819C11.8596 7.0176 11.9341 6.98673 11.989 6.93179C12.044 6.87685 12.0748 6.80233 12.0748 6.72463C12.0748 6.64693 12.044 6.57241 11.989 6.51747C11.9341 6.46253 11.8596 6.43166 11.7819 6.43166H11.7675C11.7691 6.44158 11.7706 6.45158 11.7706 6.46193ZM16.0058 7.34756H15.3284C15.2507 7.34756 15.1762 7.37843 15.1213 7.43337C15.0663 7.48831 15.0354 7.56283 15.0354 7.64053C15.0354 7.71823 15.0663 7.79275 15.1213 7.84769C15.1762 7.90263 15.2507 7.9335 15.3284 7.9335H16.0058C16.0835 7.9335 16.1581 7.90263 16.213 7.84769C16.2679 7.79275 16.2988 7.71823 16.2988 7.64053C16.2988 7.56283 16.2679 7.48831 16.213 7.43337C16.1581 7.37843 16.0835 7.34756 16.0058 7.34756ZM11.7706 7.9335H11.7819C11.8596 7.9335 11.9341 7.90263 11.989 7.84769C12.044 7.79275 12.0748 7.71823 12.0748 7.64053C12.0748 7.56283 12.044 7.48831 11.989 7.43337C11.9341 7.37843 11.8596 7.34756 11.7819 7.34756H11.7706V7.9335ZM16.0058 8.2635H15.3284C15.2507 8.2635 15.1762 8.29436 15.1213 8.34931C15.0663 8.40425 15.0354 8.47877 15.0354 8.55647C15.0354 8.63417 15.0663 8.70868 15.1213 8.76363C15.1762 8.81857 15.2507 8.84943 15.3284 8.84943H16.0058C16.0835 8.84943 16.1581 8.81857 16.213 8.76363C16.2679 8.70868 16.2988 8.63417 16.2988 8.55647C16.2988 8.47877 16.2679 8.40425 16.213 8.34931C16.1581 8.29436 16.0835 8.2635 16.0058 8.2635ZM11.7706 8.84943H11.7819C11.8596 8.84943 11.9341 8.81857 11.989 8.76363C12.044 8.70868 12.0748 8.63417 12.0748 8.55647C12.0748 8.47877 12.044 8.40425 11.989 8.34931C11.9341 8.29436 11.8596 8.2635 11.7819 8.2635H11.7706V8.84943ZM16.0058 9.17943H15.3284C15.2507 9.17943 15.1762 9.2103 15.1213 9.26524C15.0663 9.32019 15.0354 9.3947 15.0354 9.4724C15.0354 9.5501 15.0663 9.62462 15.1213 9.67956C15.1762 9.73451 15.2507 9.76537 15.3284 9.76537H16.0058C16.0835 9.76537 16.1581 9.73451 16.213 9.67956C16.2679 9.62462 16.2988 9.5501 16.2988 9.4724C16.2988 9.3947 16.2679 9.32019 16.213 9.26524C16.1581 9.2103 16.0835 9.17943 16.0058 9.17943ZM11.7706 9.76537H11.7819C11.8596 9.76537 11.9341 9.73451 11.989 9.67956C12.044 9.62462 12.0748 9.5501 12.0748 9.4724C12.0748 9.3947 12.044 9.32019 11.989 9.26524C11.9341 9.2103 11.8596 9.17943 11.7819 9.17943H11.7706V9.76537ZM16.0058 10.0954H15.3284C15.2507 10.0954 15.1762 10.1262 15.1213 10.1812C15.0663 10.2361 15.0354 10.3106 15.0354 10.3883C15.0354 10.466 15.0663 10.5406 15.1213 10.5955C15.1762 10.6504 15.2507 10.6813 15.3284 10.6813H16.0058C16.0835 10.6813 16.1581 10.6504 16.213 10.5955C16.2679 10.5406 16.2988 10.466 16.2988 10.3883C16.2988 10.3106 16.2679 10.2361 16.213 10.1812C16.1581 10.1262 16.0835 10.0954 16.0058 10.0954ZM11.7706 10.6813H11.7819C11.8596 10.6813 11.9341 10.6504 11.989 10.5955C12.044 10.5406 12.0748 10.466 12.0748 10.3883C12.0748 10.3106 12.044 10.2361 11.989 10.1812C11.9341 10.1262 11.8596 10.0954 11.7819 10.0954H11.7706V10.6813ZM16.0058 11.0113H15.3284C15.2507 11.0113 15.1762 11.0421 15.1213 11.0971C15.0663 11.152 15.0354 11.2265 15.0354 11.3042C15.0354 11.3819 15.0663 11.4565 15.1213 11.5114C15.1762 11.5663 15.2507 11.5972 15.3284 11.5972H16.0058C16.0835 11.5972 16.1581 11.5663 16.213 11.5114C16.2679 11.4565 16.2988 11.3819 16.2988 11.3042C16.2988 11.2265 16.2679 11.152 16.213 11.0971C16.1581 11.0421 16.0835 11.0113 16.0058 11.0113ZM11.7706 11.5972H11.7819C11.8596 11.5972 11.9341 11.5663 11.989 11.5114C12.044 11.4565 12.0748 11.3819 12.0748 11.3042C12.0748 11.2265 12.044 11.152 11.989 11.0971C11.9341 11.0421 11.8596 11.0113 11.7819 11.0113H11.7706V11.5972ZM16.0058 11.9272H15.3284C15.2507 11.9272 15.1762 11.9581 15.1213 12.013C15.0663 12.068 15.0354 12.1425 15.0354 12.2202C15.0354 12.2979 15.0663 12.3724 15.1213 12.4273C15.1762 12.4823 15.2507 12.5131 15.3284 12.5131H16.0058C16.0835 12.5131 16.1581 12.4823 16.213 12.4273C16.2679 12.3724 16.2988 12.2979 16.2988 12.2202C16.2988 12.1425 16.2679 12.068 16.213 12.013C16.1581 11.9581 16.0835 11.9272 16.0058 11.9272ZM11.7706 12.5131H11.7819C11.8596 12.5131 11.9341 12.4823 11.989 12.4273C12.044 12.3724 12.0748 12.2979 12.0748 12.2202C12.0748 12.1425 12.044 12.068 11.989 12.013C11.9341 11.9581 11.8596 11.9272 11.7819 11.9272H11.7706V12.5131ZM16.0058 12.8431H15.3284C15.2507 12.8431 15.1762 12.874 15.1213 12.9289C15.0663 12.9839 15.0354 13.0584 15.0354 13.1361C15.0354 13.2138 15.0663 13.2883 15.1213 13.3432C15.1762 13.3982 15.2507 13.429 15.3284 13.429H16.0058C16.0835 13.429 16.1581 13.3982 16.213 13.3432C16.2679 13.2883 16.2988 13.2138 16.2988 13.1361C16.2988 13.0584 16.2679 12.9839 16.213 12.9289C16.1581 12.874 16.0835 12.8431 16.0058 12.8431ZM11.7706 13.429H11.7819C11.8596 13.429 11.9341 13.3982 11.989 13.3432C12.044 13.2883 12.0748 13.2138 12.0748 13.1361C12.0748 13.0584 12.044 12.9839 11.989 12.9289C11.9341 12.874 11.8596 12.8431 11.7819 12.8431H11.7706V13.429ZM16.0058 13.759H15.3284C15.2507 13.759 15.1762 13.7899 15.1213 13.8449C15.0663 13.8998 15.0354 13.9743 15.0354 14.052C15.0354 14.1297 15.0663 14.2042 15.1213 14.2592C15.1762 14.3141 15.2507 14.345 15.3284 14.345H16.0058C16.0835 14.345 16.1581 14.3141 16.213 14.2592C16.2679 14.2042 16.2988 14.1297 16.2988 14.052C16.2988 13.9743 16.2679 13.8998 16.213 13.8449C16.1581 13.7899 16.0835 13.759 16.0058 13.759ZM11.7706 14.345H11.7819C11.8596 14.345 11.9341 14.3141 11.989 14.2592C12.044 14.2042 12.0748 14.1297 12.0748 14.052C12.0748 13.9743 12.044 13.8998 11.989 13.8449C11.9341 13.7899 11.8596 13.759 11.7819 13.759H11.7706V14.345ZM16.0058 14.6749H15.3284C15.2507 14.6749 15.1762 14.7058 15.1213 14.7608C15.0663 14.8157 15.0354 14.8902 15.0354 14.9679C15.0354 15.0456 15.0663 15.1201 15.1213 15.1751C15.1762 15.23 15.2507 15.2609 15.3284 15.2609H16.0058C16.0835 15.2609 16.1581 15.23 16.213 15.1751C16.2679 15.1201 16.2988 15.0456 16.2988 14.9679C16.2988 14.8902 16.2679 14.8157 16.213 14.7608C16.1581 14.7058 16.0835 14.6749 16.0058 14.6749ZM11.7706 15.2609H11.7819C11.8596 15.2609 11.9341 15.23 11.989 15.1751C12.044 15.1201 12.0748 15.0456 12.0748 14.9679C12.0748 14.8902 12.044 14.8157 11.989 14.7608C11.9341 14.7058 11.8596 14.6749 11.7819 14.6749H11.7706V15.2609ZM16.0058 15.5909H15.3284C15.2507 15.5909 15.1762 15.6217 15.1213 15.6767C15.0663 15.7316 15.0354 15.8061 15.0354 15.8838C15.0354 15.9615 15.0663 16.0361 15.1213 16.091C15.1762 16.146 15.2507 16.1768 15.3284 16.1768H16.0058C16.0835 16.1768 16.1581 16.146 16.213 16.091C16.2679 16.0361 16.2988 15.9615 16.2988 15.8838C16.2988 15.8061 16.2679 15.7316 16.213 15.6767C16.1581 15.6217 16.0835 15.5909 16.0058 15.5909ZM11.7706 16.1768H11.7819C11.8596 16.1768 11.9341 16.146 11.989 16.091C12.044 16.0361 12.0748 15.9615 12.0748 15.8838C12.0748 15.8061 12.044 15.7316 11.989 15.6767C11.9341 15.6217 11.8596 15.5909 11.7819 15.5909H11.7706V16.1768ZM16.0058 16.5068H15.3284C15.2507 16.5068 15.1762 16.5377 15.1213 16.5926C15.0663 16.6476 15.0354 16.7221 15.0354 16.7998C15.0354 16.8775 15.0663 16.952 15.1213 17.0069C15.1762 17.0619 15.2507 17.0928 15.3284 17.0928H16.0058C16.0835 17.0928 16.1581 17.0619 16.213 17.0069C16.2679 16.952 16.2988 16.8775 16.2988 16.7998C16.2988 16.7221 16.2679 16.6476 16.213 16.5926C16.1581 16.5377 16.0835 16.5068 16.0058 16.5068ZM11.7706 17.0928H11.7819C11.8596 17.0928 11.9341 17.0619 11.989 17.0069C12.044 16.952 12.0748 16.8775 12.0748 16.7998C12.0748 16.7221 12.044 16.6476 11.989 16.5926C11.9341 16.5377 11.8596 16.5068 11.7819 16.5068H11.7706V17.0928ZM16.0058 17.4228H15.3284C15.2507 17.4228 15.1762 17.4536 15.1213 17.5086C15.0663 17.5635 15.0354 17.638 15.0354 17.7157C15.0354 17.7934 15.0663 17.8679 15.1213 17.9229C15.1762 17.9778 15.2507 18.0087 15.3284 18.0087H16.0058C16.0835 18.0087 16.1581 17.9778 16.213 17.9229C16.2679 17.8679 16.2988 17.7934 16.2988 17.7157C16.2988 17.638 16.2679 17.5635 16.213 17.5086C16.1581 17.4536 16.0835 17.4228 16.0058 17.4228ZM11.7706 18.0087H11.7819C11.8596 18.0087 11.9341 17.9778 11.989 17.9229C12.044 17.8679 12.0748 17.7934 12.0748 17.7157C12.0748 17.638 12.044 17.5635 11.989 17.5086C11.9341 17.4536 11.8596 17.4228 11.7819 17.4228H11.7706V18.0087ZM14.374 1.85205H12.7362C12.6585 1.85205 12.584 1.88292 12.5291 1.93786C12.4741 1.9928 12.4433 2.06732 12.4433 2.14502C12.4433 2.22272 12.4741 2.29724 12.5291 2.35218C12.584 2.40712 12.6585 2.43799 12.7362 2.43799H14.374C14.4125 2.43799 14.4506 2.43041 14.4861 2.41569C14.5217 2.40096 14.554 2.37938 14.5812 2.35218C14.6084 2.32498 14.6299 2.29268 14.6447 2.25713C14.6594 2.22159 14.667 2.18349 14.667 2.14502C14.667 2.06732 14.6361 1.9928 14.5812 1.93786C14.5262 1.88292 14.4517 1.85205 14.374 1.85205ZM14.374 2.76795H12.7362C12.6585 2.76795 12.584 2.79882 12.5291 2.85376C12.4741 2.9087 12.4433 2.98322 12.4433 3.06092C12.4433 3.13862 12.4741 3.21314 12.5291 3.26808C12.584 3.32302 12.6585 3.35389 12.7362 3.35389H14.374C14.4517 3.35389 14.5262 3.32302 14.5812 3.26808C14.6361 3.21314 14.667 3.13862 14.667 3.06092C14.667 2.98322 14.6361 2.9087 14.5812 2.85376C14.5262 2.79882 14.4517 2.76795 14.374 2.76795ZM14.374 3.68389H12.7362C12.6585 3.68389 12.584 3.71475 12.5291 3.7697C12.4741 3.82464 12.4433 3.89916 12.4433 3.97686C12.4433 4.05456 12.4741 4.12907 12.5291 4.18402C12.584 4.23896 12.6585 4.26982 12.7362 4.26982H14.374C14.4517 4.26982 14.5262 4.23896 14.5812 4.18402C14.6361 4.12907 14.667 4.05456 14.667 3.97686C14.667 3.89916 14.6361 3.82464 14.5812 3.7697C14.5262 3.71475 14.4517 3.68389 14.374 3.68389ZM14.374 4.59982H12.7362C12.6585 4.59982 12.584 4.63069 12.5291 4.68563C12.4741 4.74058 12.4433 4.81509 12.4433 4.89279C12.4433 4.97049 12.4741 5.04501 12.5291 5.09995C12.584 5.1549 12.6585 5.18576 12.7362 5.18576H14.374C14.4517 5.18576 14.5262 5.1549 14.5812 5.09995C14.6361 5.04501 14.667 4.97049 14.667 4.89279C14.667 4.81509 14.6361 4.74058 14.5812 4.68563C14.5262 4.63069 14.4517 4.59982 14.374 4.59982ZM14.374 5.51572H12.7362C12.6585 5.51572 12.584 5.54659 12.5291 5.60153C12.4741 5.65647 12.4433 5.73099 12.4433 5.80869C12.4433 5.88639 12.4741 5.96091 12.5291 6.01585C12.584 6.07079 12.6585 6.10166 12.7362 6.10166H14.374C14.4517 6.10166 14.5262 6.07079 14.5812 6.01585C14.6361 5.96091 14.667 5.88639 14.667 5.80869C14.667 5.73099 14.6361 5.65647 14.5812 5.60153C14.5262 5.54659 14.4517 5.51572 14.374 5.51572ZM14.374 6.43166H12.7362C12.6585 6.43166 12.584 6.46253 12.5291 6.51747C12.4741 6.57241 12.4433 6.64693 12.4433 6.72463C12.4433 6.80233 12.4741 6.87685 12.5291 6.93179C12.584 6.98673 12.6585 7.0176 12.7362 7.0176H14.374C14.4517 7.0176 14.5262 6.98673 14.5812 6.93179C14.6361 6.87685 14.667 6.80233 14.667 6.72463C14.667 6.64693 14.6361 6.57241 14.5812 6.51747C14.5262 6.46253 14.4517 6.43166 14.374 6.43166ZM14.374 7.34756H12.7362C12.6585 7.34756 12.584 7.37843 12.5291 7.43337C12.4741 7.48831 12.4433 7.56283 12.4433 7.64053C12.4433 7.71823 12.4741 7.79275 12.5291 7.84769C12.584 7.90263 12.6585 7.9335 12.7362 7.9335H14.374C14.4517 7.9335 14.5262 7.90263 14.5812 7.84769C14.6361 7.79275 14.667 7.71823 14.667 7.64053C14.667 7.56283 14.6361 7.48831 14.5812 7.43337C14.5262 7.37843 14.4517 7.34756 14.374 7.34756ZM14.374 8.2635H12.7362C12.6585 8.2635 12.584 8.29436 12.5291 8.34931C12.4741 8.40425 12.4433 8.47877 12.4433 8.55647C12.4433 8.63417 12.4741 8.70868 12.5291 8.76363C12.584 8.81857 12.6585 8.84943 12.7362 8.84943H14.374C14.4517 8.84943 14.5262 8.81857 14.5812 8.76363C14.6361 8.70868 14.667 8.63417 14.667 8.55647C14.667 8.47877 14.6361 8.40425 14.5812 8.34931C14.5262 8.29436 14.4517 8.2635 14.374 8.2635ZM14.374 9.17943H12.7362C12.6585 9.17943 12.584 9.2103 12.5291 9.26524C12.4741 9.32019 12.4433 9.3947 12.4433 9.4724C12.4433 9.5501 12.4741 9.62462 12.5291 9.67956C12.584 9.73451 12.6585 9.76537 12.7362 9.76537H14.374C14.4517 9.76537 14.5262 9.73451 14.5812 9.67956C14.6361 9.62462 14.667 9.5501 14.667 9.4724C14.667 9.3947 14.6361 9.32019 14.5812 9.26524C14.5262 9.2103 14.4517 9.17943 14.374 9.17943ZM14.374 10.0954H12.7362C12.6585 10.0954 12.584 10.1262 12.5291 10.1812C12.4741 10.2361 12.4433 10.3106 12.4433 10.3883C12.4433 10.466 12.4741 10.5406 12.5291 10.5955C12.584 10.6504 12.6585 10.6813 12.7362 10.6813H14.374C14.4517 10.6813 14.5262 10.6504 14.5812 10.5955C14.6361 10.5406 14.667 10.466 14.667 10.3883C14.667 10.3106 14.6361 10.2361 14.5812 10.1812C14.5262 10.1262 14.4517 10.0954 14.374 10.0954ZM14.374 11.0113H12.7362C12.6585 11.0113 12.584 11.0421 12.5291 11.0971C12.4741 11.152 12.4433 11.2265 12.4433 11.3042C12.4433 11.3819 12.4741 11.4565 12.5291 11.5114C12.584 11.5663 12.6585 11.5972 12.7362 11.5972H14.374C14.4517 11.5972 14.5262 11.5663 14.5812 11.5114C14.6361 11.4565 14.667 11.3819 14.667 11.3042C14.667 11.2265 14.6361 11.152 14.5812 11.0971C14.5262 11.0421 14.4517 11.0113 14.374 11.0113ZM14.374 11.9272H12.7362C12.6585 11.9272 12.584 11.9581 12.5291 12.013C12.4741 12.068 12.4433 12.1425 12.4433 12.2202C12.4433 12.2979 12.4741 12.3724 12.5291 12.4273C12.584 12.4823 12.6585 12.5131 12.7362 12.5131H14.374C14.4517 12.5131 14.5262 12.4823 14.5812 12.4273C14.6361 12.3724 14.667 12.2979 14.667 12.2202C14.667 12.1425 14.6361 12.068 14.5812 12.013C14.5262 11.9581 14.4517 11.9272 14.374 11.9272ZM14.374 12.8431H12.7362C12.6585 12.8431 12.584 12.874 12.5291 12.9289C12.4741 12.9839 12.4433 13.0584 12.4433 13.1361C12.4433 13.2138 12.4741 13.2883 12.5291 13.3432C12.584 13.3982 12.6585 13.429 12.7362 13.429H14.374C14.4517 13.429 14.5262 13.3982 14.5812 13.3432C14.6361 13.2883 14.667 13.2138 14.667 13.1361C14.667 13.0584 14.6361 12.9839 14.5812 12.9289C14.5262 12.874 14.4517 12.8431 14.374 12.8431ZM14.374 13.759H12.7362C12.6585 13.759 12.584 13.7899 12.5291 13.8449C12.4741 13.8998 12.4433 13.9743 12.4433 14.052C12.4433 14.1297 12.4741 14.2042 12.5291 14.2592C12.584 14.3141 12.6585 14.345 12.7362 14.345H14.374C14.4517 14.345 14.5262 14.3141 14.5812 14.2592C14.6361 14.2042 14.667 14.1297 14.667 14.052C14.667 13.9743 14.6361 13.8998 14.5812 13.8449C14.5262 13.7899 14.4517 13.759 14.374 13.759ZM14.374 14.6749H12.7362C12.6585 14.6749 12.584 14.7058 12.5291 14.7608C12.4741 14.8157 12.4433 14.8902 12.4433 14.9679C12.4433 15.0456 12.4741 15.1201 12.5291 15.1751C12.584 15.23 12.6585 15.2609 12.7362 15.2609H14.374C14.4517 15.2609 14.5262 15.23 14.5812 15.1751C14.6361 15.1201 14.667 15.0456 14.667 14.9679C14.667 14.8902 14.6361 14.8157 14.5812 14.7608C14.5262 14.7058 14.4517 14.6749 14.374 14.6749ZM14.374 15.5909H12.7362C12.6585 15.5909 12.584 15.6217 12.5291 15.6767C12.4741 15.7316 12.4433 15.8061 12.4433 15.8838C12.4433 15.9615 12.4741 16.0361 12.5291 16.091C12.584 16.146 12.6585 16.1768 12.7362 16.1768H14.374C14.4517 16.1768 14.5262 16.146 14.5812 16.091C14.6361 16.0361 14.667 15.9615 14.667 15.8838C14.667 15.8061 14.6361 15.7316 14.5812 15.6767C14.5262 15.6217 14.4517 15.5909 14.374 15.5909ZM14.374 16.5068H12.7362C12.6585 16.5068 12.584 16.5377 12.5291 16.5926C12.4741 16.6476 12.4433 16.7221 12.4433 16.7998C12.4433 16.8775 12.4741 16.952 12.5291 17.0069C12.584 17.0619 12.6585 17.0928 12.7362 17.0928H14.374C14.4517 17.0928 14.5262 17.0619 14.5812 17.0069C14.6361 16.952 14.667 16.8775 14.667 16.7998C14.667 16.7221 14.6361 16.6476 14.5812 16.5926C14.5262 16.5377 14.4517 16.5068 14.374 16.5068ZM14.374 17.4228H12.7362C12.6585 17.4228 12.584 17.4536 12.5291 17.5086C12.4741 17.5635 12.4433 17.638 12.4433 17.7157C12.4433 17.7934 12.4741 17.8679 12.5291 17.9229C12.584 17.9778 12.6585 18.0087 12.7362 18.0087H14.374C14.4517 18.0087 14.5262 17.9778 14.5812 17.9229C14.6361 17.8679 14.667 17.7934 14.667 17.7157C14.667 17.638 14.6361 17.5635 14.5812 17.5086C14.5262 17.4536 14.4517 17.4228 14.374 17.4228Z" fill="#EF5050" />
	<path d="M6.2274 7.6314V6.46211C6.2274 6.35261 6.31705 6.263 6.42666 6.263H6.90596V5.27547C6.90596 5.16593 6.99561 5.07632 7.10522 5.07632H7.49967V3.93144C7.49967 3.8264 7.58244 3.74054 7.68588 3.73367V0.114255C7.68588 0.00472365 7.61303 -0.0326592 7.52397 0.031169L3.94612 2.59617C3.85709 2.66 3.78424 2.80183 3.78424 2.91133V7.63136L6.2274 7.6314Z" fill="#D5E962" />
	<path opacity="0.1" d="M4.81998 7.6314V3.19808C4.81998 3.08859 4.89283 2.94675 4.98186 2.88293L7.68588 0.944411V0.114255C7.68588 0.00472365 7.61303 -0.0326592 7.52397 0.031169L3.94612 2.59617C3.85709 2.66 3.78424 2.80183 3.78424 2.91133V7.63136L4.81998 7.6314Z" fill="black" />
	<path d="M4.65723 3.94995H7.1677C7.2454 3.94995 7.31991 3.91908 7.37486 3.86414C7.4298 3.8092 7.46066 3.73468 7.46066 3.65698C7.46066 3.57928 7.4298 3.50476 7.37486 3.44982C7.31991 3.39488 7.2454 3.36401 7.1677 3.36401H4.65723C4.57953 3.36401 4.50501 3.39488 4.45007 3.44982C4.39512 3.50476 4.36426 3.57928 4.36426 3.65698C4.36426 3.73468 4.39512 3.8092 4.45007 3.86414C4.50501 3.91908 4.57953 3.94995 4.65723 3.94995ZM7.1677 4.22022H4.65723C4.57953 4.22022 4.50501 4.25109 4.45007 4.30603C4.39512 4.36098 4.36426 4.43549 4.36426 4.51319C4.36426 4.59089 4.39512 4.66541 4.45007 4.72035C4.50501 4.7753 4.57953 4.80616 4.65723 4.80616H7.1677C7.2454 4.80616 7.31991 4.7753 7.37486 4.72035C7.4298 4.66541 7.46066 4.59089 7.46066 4.51319C7.46066 4.43549 7.4298 4.36098 7.37486 4.30603C7.31991 4.25109 7.2454 4.22022 7.1677 4.22022ZM4.65723 5.66233H6.90617V5.27401C6.90617 5.16964 6.98785 5.08429 7.09039 5.0764H4.65723C4.57953 5.0764 4.50501 5.10726 4.45007 5.16221C4.39512 5.21715 4.36426 5.29167 4.36426 5.36937C4.36426 5.44707 4.39512 5.52158 4.45007 5.57653C4.50501 5.63147 4.57953 5.66233 4.65723 5.66233ZM4.65723 6.51851H6.22762V6.46065C6.22762 6.35116 6.31727 6.26155 6.42687 6.26155H6.90617V5.93261H4.65723C4.58012 5.9335 4.50647 5.96475 4.45226 6.0196C4.39804 6.07444 4.36764 6.14844 4.36764 6.22556C4.36764 6.30267 4.39804 6.37668 4.45226 6.43152C4.50647 6.48636 4.58012 6.51762 4.65723 6.51851ZM4.65723 7.37472H6.22762V6.78878H4.65723C4.57953 6.78878 4.50501 6.81965 4.45007 6.87459C4.39512 6.92953 4.36426 7.00405 4.36426 7.08175C4.36426 7.15945 4.39512 7.23397 4.45007 7.28891C4.50501 7.34385 4.57953 7.37472 4.65723 7.37472Z" fill="#89C947" />
	<path d="M7.00754 19.5086C7.00754 19.6181 6.91789 19.7077 6.80828 19.7077H1.26953C1.15992 19.7077 1.07031 19.6181 1.07031 19.5086V7.61634C1.07031 7.50685 1.15996 7.41724 1.26953 7.41724H6.80828C6.91785 7.41724 7.00754 7.50685 7.00754 7.61634V19.5086Z" fill="#F7931E" />
	<path opacity="0.1" d="M1.86805 19.5086V7.61634C1.86805 7.50685 1.9577 7.41724 2.0673 7.41724H1.26953C1.15992 7.41724 1.07031 7.50685 1.07031 7.61634V19.5086C1.07031 19.6181 1.15996 19.7077 1.26953 19.7077H2.06727C1.95773 19.7077 1.86805 19.6181 1.86805 19.5086Z" fill="black" />
	<path d="M2.21484 17.5425C2.13714 17.5425 2.06263 17.5117 2.00768 17.4567C1.95274 17.4018 1.92188 17.3273 1.92188 17.2496V8.90051C1.92188 8.82281 1.95274 8.74829 2.00768 8.69335C2.06263 8.63841 2.13714 8.60754 2.21484 8.60754C2.29254 8.60754 2.36706 8.63841 2.422 8.69335C2.47695 8.74829 2.50781 8.82281 2.50781 8.90051V17.2495C2.50782 17.288 2.50024 17.3261 2.48552 17.3617C2.4708 17.3972 2.44922 17.4295 2.42202 17.4567C2.39481 17.4839 2.36251 17.5055 2.32697 17.5202C2.29142 17.535 2.25332 17.5425 2.21484 17.5425ZM3.14785 17.5425C3.07015 17.5425 2.99563 17.5117 2.94069 17.4567C2.88575 17.4018 2.85488 17.3273 2.85488 17.2496V8.90051C2.85488 8.82281 2.88575 8.74829 2.94069 8.69335C2.99563 8.63841 3.07015 8.60754 3.14785 8.60754C3.22555 8.60754 3.30007 8.63841 3.35501 8.69335C3.40995 8.74829 3.44082 8.82281 3.44082 8.90051V17.2495C3.44083 17.288 3.43325 17.3261 3.41853 17.3617C3.40381 17.3972 3.38223 17.4295 3.35503 17.4567C3.32782 17.4839 3.29552 17.5055 3.25997 17.5202C3.22443 17.535 3.18633 17.5425 3.14785 17.5425ZM4.08086 17.5425C4.00316 17.5425 3.92864 17.5117 3.8737 17.4567C3.81876 17.4018 3.78789 17.3273 3.78789 17.2496V8.90051C3.78789 8.82281 3.81876 8.74829 3.8737 8.69335C3.92864 8.63841 4.00316 8.60754 4.08086 8.60754C4.15856 8.60754 4.23308 8.63841 4.28802 8.69335C4.34296 8.74829 4.37383 8.82281 4.37383 8.90051V17.2495C4.37383 17.288 4.36626 17.3261 4.35154 17.3617C4.33682 17.3972 4.31524 17.4295 4.28803 17.4567C4.26083 17.4839 4.22853 17.5055 4.19298 17.5202C4.15744 17.535 4.11934 17.5425 4.08086 17.5425ZM5.01383 17.5425C4.93613 17.5425 4.86161 17.5117 4.80667 17.4567C4.75173 17.4018 4.72086 17.3273 4.72086 17.2496V8.90051C4.72086 8.82281 4.75173 8.74829 4.80667 8.69335C4.86161 8.63841 4.93613 8.60754 5.01383 8.60754C5.09153 8.60754 5.16605 8.63841 5.22099 8.69335C5.27593 8.74829 5.3068 8.82281 5.3068 8.90051V17.2495C5.3068 17.288 5.29923 17.3261 5.28451 17.3617C5.26979 17.3972 5.24821 17.4295 5.221 17.4567C5.1938 17.4839 5.1615 17.5055 5.12595 17.5202C5.0904 17.535 5.0523 17.5425 5.01383 17.5425Z" fill="#FFC502" />
	<path d="M9.29376 3.75105V0.679016C9.29376 0.601316 9.2629 0.526798 9.20795 0.471856C9.15301 0.416914 9.07849 0.386047 9.00079 0.386047C8.92309 0.386047 8.84858 0.416914 8.79363 0.471856C8.73869 0.526798 8.70782 0.601316 8.70782 0.679016V3.75105H9.29376Z" fill="#C5CCD3" />
	<path d="M10.6966 5.07857V3.71705C10.6966 3.60755 10.6069 3.51794 10.4973 3.51794H7.50315C7.39358 3.51794 7.30389 3.60755 7.30389 3.71705V5.07857H10.6966Z" fill="#E6E9ED" />
	<path opacity="0.1" d="M8.12354 5.07857V3.71705C8.12354 3.60755 8.21319 3.51794 8.3228 3.51794H7.50315C7.39358 3.51794 7.30389 3.60755 7.30389 3.71705V5.07857H8.12354Z" fill="black" />
	<path d="M11.291 6.24419V5.06126C11.291 4.95173 11.2014 4.86212 11.0918 4.86212H6.9102C6.80059 4.86212 6.71094 4.95173 6.71094 5.06126V6.24419H11.291Z" fill="#C5CCD3" />
	<path opacity="0.1" d="M7.96492 6.24419V5.06126C7.96492 4.95173 8.05457 4.86212 8.16414 4.86212H6.9102C6.80059 4.86212 6.71094 4.95173 6.71094 5.06126V6.24419H7.96492Z" fill="black" />
	<path d="M11.9693 18.902C11.9693 19.0115 11.8796 19.1011 11.77 19.1011H6.2313C6.12169 19.1011 6.03204 19.0115 6.03204 18.902V6.24689C6.03204 6.1374 6.12169 6.04779 6.2313 6.04779H11.77C11.8796 6.04779 11.9693 6.1374 11.9693 6.24689V18.902Z" fill="#E6E9ED" />
	<path opacity="0.1" d="M6.84907 18.902V6.24689C6.84907 6.1374 6.93872 6.04779 7.04833 6.04779H6.2313C6.12169 6.04779 6.03204 6.1374 6.03204 6.24689V18.902C6.03204 19.0115 6.12169 19.1011 6.2313 19.1011H7.04833C6.93872 19.1011 6.84907 19.0115 6.84907 18.902Z" fill="black" />
	<path d="M1.98218 18.2402C2.83434 18.2402 3.52515 17.5498 3.52515 16.6982C3.52515 15.8466 2.83434 15.1562 1.98218 15.1562C1.13002 15.1562 0.439209 15.8466 0.439209 16.6982C0.439209 17.5498 1.13002 18.2402 1.98218 18.2402Z" fill="#89C947" />
	<path d="M1.98218 18.0061C1.88194 18.0061 1.78409 17.9962 1.68921 17.978V19.5295H2.27515V17.978C2.18026 17.9962 2.08237 18.0061 1.98218 18.0061Z" fill="#775436" />
	<path opacity="0.1" d="M1.35386 16.6982C1.35386 16.0057 1.81065 15.4199 2.43952 15.2252C2.2914 15.1793 2.13722 15.1561 1.98218 15.1563C1.12999 15.1563 0.439209 15.8466 0.439209 16.6982C0.439209 17.5498 1.12999 18.2402 1.98218 18.2402C2.14144 18.2402 2.29499 18.216 2.43952 18.1713C1.81065 17.9765 1.35386 17.3907 1.35386 16.6982Z" fill="black" />
	<path d="M15.9551 18.0061C15.8549 18.0061 15.757 17.9962 15.6621 17.978V19.5295H16.248V17.978C16.1532 17.9962 16.0553 18.0061 15.9551 18.0061Z" fill="#775436" />
	<path d="M15.9551 18.2402C16.8072 18.2402 17.498 17.5498 17.498 16.6982C17.498 15.8466 16.8072 15.1562 15.9551 15.1562C15.1029 15.1562 14.4121 15.8466 14.4121 16.6982C14.4121 17.5498 15.1029 18.2402 15.9551 18.2402Z" fill="#89C947" />
	<path opacity="0.1" d="M15.3418 16.6982C15.3418 16.0086 15.795 15.4248 16.4199 15.2276C16.2695 15.1802 16.1128 15.1562 15.9551 15.1563C15.1029 15.1563 14.4121 15.8466 14.4121 16.6982C14.4121 17.5498 15.1029 18.2402 15.9551 18.2402C16.1171 18.2402 16.2732 18.215 16.4199 18.1688C15.795 17.9717 15.3418 17.3879 15.3418 16.6982Z" fill="black" />
	<path d="M6.87994 15.9922C6.80224 15.9922 6.72773 16.023 6.67278 16.078C6.61784 16.1329 6.58698 16.2074 6.58698 16.2851V16.6984C6.58698 16.7761 6.61784 16.8506 6.67278 16.9055C6.72773 16.9605 6.80224 16.9913 6.87994 16.9913C6.95764 16.9913 7.03216 16.9605 7.0871 16.9055C7.14205 16.8506 7.17291 16.7761 7.17291 16.6984V16.2851C7.17291 16.2074 7.14205 16.1329 7.0871 16.078C7.03216 16.023 6.95764 15.9922 6.87994 15.9922ZM11.1208 15.9922C11.0431 15.9922 10.9686 16.023 10.9136 16.078C10.8587 16.1329 10.8278 16.2074 10.8278 16.2851V16.6984C10.8278 16.7761 10.8587 16.8506 10.9136 16.9055C10.9686 16.9605 11.0431 16.9913 11.1208 16.9913C11.1985 16.9913 11.273 16.9605 11.328 16.9055C11.3829 16.8506 11.4138 16.7761 11.4138 16.6984V16.2851C11.4138 16.2074 11.3829 16.1329 11.328 16.078C11.273 16.023 11.1985 15.9922 11.1208 15.9922ZM6.87994 6.68427C6.80224 6.68427 6.72773 6.71513 6.67278 6.77007C6.61784 6.82502 6.58698 6.89953 6.58698 6.97723V7.39044C6.58698 7.46814 6.61784 7.54265 6.67278 7.5976C6.72773 7.65254 6.80224 7.68341 6.87994 7.68341C6.95764 7.68341 7.03216 7.65254 7.0871 7.5976C7.14205 7.54265 7.17291 7.46814 7.17291 7.39044V6.97723C7.17291 6.89953 7.14205 6.82502 7.0871 6.77007C7.03216 6.71513 6.95764 6.68427 6.87994 6.68427ZM7.72811 6.68427C7.65041 6.68427 7.57589 6.71513 7.52095 6.77007C7.46601 6.82502 7.43514 6.89953 7.43514 6.97723V7.39044C7.43514 7.46814 7.46601 7.54265 7.52095 7.5976C7.57589 7.65254 7.65041 7.68341 7.72811 7.68341C7.80581 7.68341 7.88033 7.65254 7.93527 7.5976C7.99021 7.54265 8.02108 7.46814 8.02108 7.39044V6.97723C8.02108 6.89953 7.99021 6.82502 7.93527 6.77007C7.88033 6.71513 7.80581 6.68427 7.72811 6.68427ZM8.57627 6.68427C8.49857 6.68427 8.42405 6.71513 8.36911 6.77007C8.31417 6.82502 8.2833 6.89953 8.2833 6.97723V7.39044C8.2833 7.46814 8.31417 7.54265 8.36911 7.5976C8.42405 7.65254 8.49857 7.68341 8.57627 7.68341C8.65397 7.68341 8.72849 7.65254 8.78343 7.5976C8.83837 7.54265 8.86924 7.46814 8.86924 7.39044V6.97723C8.86924 6.89953 8.83837 6.82502 8.78343 6.77007C8.72849 6.71513 8.65397 6.68427 8.57627 6.68427ZM9.42448 6.68427C9.34677 6.68427 9.27226 6.71513 9.21732 6.77007C9.16237 6.82502 9.13151 6.89953 9.13151 6.97723V7.39044C9.13151 7.46814 9.16237 7.54265 9.21732 7.5976C9.27226 7.65254 9.34677 7.68341 9.42448 7.68341C9.50218 7.68341 9.57669 7.65254 9.63164 7.5976C9.68658 7.54265 9.71744 7.46814 9.71744 7.39044V6.97723C9.71744 6.89953 9.68658 6.82502 9.63164 6.77007C9.57669 6.71513 9.50218 6.68427 9.42448 6.68427ZM10.2726 6.68427C10.1949 6.68427 10.1204 6.71513 10.0655 6.77007C10.0105 6.82502 9.97967 6.89953 9.97967 6.97723V7.39044C9.97967 7.46814 10.0105 7.54265 10.0655 7.5976C10.1204 7.65254 10.1949 7.68341 10.2726 7.68341C10.3503 7.68341 10.4249 7.65254 10.4798 7.5976C10.5347 7.54265 10.5656 7.46814 10.5656 7.39044V6.97723C10.5656 6.89953 10.5347 6.82502 10.4798 6.77007C10.4249 6.71513 10.3503 6.68427 10.2726 6.68427ZM11.1208 6.68427C11.0431 6.68427 10.9686 6.71513 10.9136 6.77007C10.8587 6.82502 10.8278 6.89953 10.8278 6.97723V7.39044C10.8278 7.46814 10.8587 7.54265 10.9136 7.5976C10.9686 7.65254 11.0431 7.68341 11.1208 7.68341C11.1985 7.68341 11.273 7.65254 11.328 7.5976C11.3829 7.54265 11.4138 7.46814 11.4138 7.39044V6.97723C11.4138 6.89953 11.3829 6.82502 11.328 6.77007C11.273 6.71513 11.1985 6.68427 11.1208 6.68427ZM6.87994 8.01399C6.80224 8.01399 6.72773 8.04486 6.67278 8.0998C6.61784 8.15474 6.58698 8.22926 6.58698 8.30696V8.72016C6.58698 8.79786 6.61784 8.87238 6.67278 8.92732C6.72773 8.98227 6.80224 9.01313 6.87994 9.01313C6.95764 9.01313 7.03216 8.98227 7.0871 8.92732C7.14205 8.87238 7.17291 8.79786 7.17291 8.72016V8.30696C7.17291 8.22926 7.14205 8.15474 7.0871 8.0998C7.03216 8.04486 6.95764 8.01399 6.87994 8.01399ZM7.72811 8.01399C7.65041 8.01399 7.57589 8.04486 7.52095 8.0998C7.46601 8.15474 7.43514 8.22926 7.43514 8.30696V8.72016C7.43514 8.79786 7.46601 8.87238 7.52095 8.92732C7.57589 8.98227 7.65041 9.01313 7.72811 9.01313C7.80581 9.01313 7.88033 8.98227 7.93527 8.92732C7.99021 8.87238 8.02108 8.79786 8.02108 8.72016V8.30696C8.02108 8.22926 7.99021 8.15474 7.93527 8.0998C7.88033 8.04486 7.80581 8.01399 7.72811 8.01399ZM8.57627 8.01399C8.49857 8.01399 8.42405 8.04486 8.36911 8.0998C8.31417 8.15474 8.2833 8.22926 8.2833 8.30696V8.72016C8.2833 8.79786 8.31417 8.87238 8.36911 8.92732C8.42405 8.98227 8.49857 9.01313 8.57627 9.01313C8.65397 9.01313 8.72849 8.98227 8.78343 8.92732C8.83837 8.87238 8.86924 8.79786 8.86924 8.72016V8.30696C8.86924 8.22926 8.83837 8.15474 8.78343 8.0998C8.72849 8.04486 8.65397 8.01399 8.57627 8.01399ZM9.42448 8.01399C9.34677 8.01399 9.27226 8.04486 9.21732 8.0998C9.16237 8.15474 9.13151 8.22926 9.13151 8.30696V8.72016C9.13151 8.79786 9.16237 8.87238 9.21732 8.92732C9.27226 8.98227 9.34677 9.01313 9.42448 9.01313C9.50218 9.01313 9.57669 8.98227 9.63164 8.92732C9.68658 8.87238 9.71744 8.79786 9.71744 8.72016V8.30696C9.71744 8.22926 9.68658 8.15474 9.63164 8.0998C9.57669 8.04486 9.50218 8.01399 9.42448 8.01399ZM10.2726 8.01399C10.1949 8.01399 10.1204 8.04486 10.0655 8.0998C10.0105 8.15474 9.97967 8.22926 9.97967 8.30696V8.72016C9.97967 8.79786 10.0105 8.87238 10.0655 8.92732C10.1204 8.98227 10.1949 9.01313 10.2726 9.01313C10.3503 9.01313 10.4249 8.98227 10.4798 8.92732C10.5347 8.87238 10.5656 8.79786 10.5656 8.72016V8.30696C10.5656 8.22926 10.5347 8.15474 10.4798 8.0998C10.4249 8.04486 10.3503 8.01399 10.2726 8.01399ZM11.1208 8.01399C11.0431 8.01399 10.9686 8.04486 10.9136 8.0998C10.8587 8.15474 10.8278 8.22926 10.8278 8.30696V8.72016C10.8278 8.79786 10.8587 8.87238 10.9136 8.92732C10.9686 8.98227 11.0431 9.01313 11.1208 9.01313C11.1985 9.01313 11.273 8.98227 11.328 8.92732C11.3829 8.87238 11.4138 8.79786 11.4138 8.72016V8.30696C11.4138 8.22926 11.3829 8.15474 11.328 8.0998C11.273 8.04486 11.1985 8.01399 11.1208 8.01399ZM6.87994 9.34368C6.80224 9.34368 6.72773 9.37455 6.67278 9.42949C6.61784 9.48443 6.58698 9.55895 6.58698 9.63665V10.0499C6.58698 10.1276 6.61784 10.2021 6.67278 10.257C6.72773 10.312 6.80224 10.3428 6.87994 10.3428C6.95764 10.3428 7.03216 10.312 7.0871 10.257C7.14205 10.2021 7.17291 10.1276 7.17291 10.0499V9.63665C7.17291 9.55895 7.14205 9.48443 7.0871 9.42949C7.03216 9.37455 6.95764 9.34368 6.87994 9.34368ZM7.72811 9.34368C7.65041 9.34368 7.57589 9.37455 7.52095 9.42949C7.46601 9.48443 7.43514 9.55895 7.43514 9.63665V10.0499C7.43514 10.1276 7.46601 10.2021 7.52095 10.257C7.57589 10.312 7.65041 10.3428 7.72811 10.3428C7.80581 10.3428 7.88033 10.312 7.93527 10.257C7.99021 10.2021 8.02108 10.1276 8.02108 10.0499V9.63665C8.02108 9.55895 7.99021 9.48443 7.93527 9.42949C7.88033 9.37455 7.80581 9.34368 7.72811 9.34368ZM8.57627 9.34368C8.49857 9.34368 8.42405 9.37455 8.36911 9.42949C8.31417 9.48443 8.2833 9.55895 8.2833 9.63665V10.0499C8.2833 10.1276 8.31417 10.2021 8.36911 10.257C8.42405 10.312 8.49857 10.3428 8.57627 10.3428C8.65397 10.3428 8.72849 10.312 8.78343 10.257C8.83837 10.2021 8.86924 10.1276 8.86924 10.0499V9.63665C8.86924 9.55895 8.83837 9.48443 8.78343 9.42949C8.72849 9.37455 8.65397 9.34368 8.57627 9.34368ZM9.42448 9.34368C9.34677 9.34368 9.27226 9.37455 9.21732 9.42949C9.16237 9.48443 9.13151 9.55895 9.13151 9.63665V10.0499C9.13151 10.1276 9.16237 10.2021 9.21732 10.257C9.27226 10.312 9.34677 10.3428 9.42448 10.3428C9.50218 10.3428 9.57669 10.312 9.63164 10.257C9.68658 10.2021 9.71744 10.1276 9.71744 10.0499V9.63665C9.71744 9.55895 9.68658 9.48443 9.63164 9.42949C9.57669 9.37455 9.50218 9.34368 9.42448 9.34368ZM10.2726 9.34368C10.1949 9.34368 10.1204 9.37455 10.0655 9.42949C10.0105 9.48443 9.97967 9.55895 9.97967 9.63665V10.0499C9.97967 10.1276 10.0105 10.2021 10.0655 10.257C10.1204 10.312 10.1949 10.3428 10.2726 10.3428C10.3503 10.3428 10.4249 10.312 10.4798 10.257C10.5347 10.2021 10.5656 10.1276 10.5656 10.0499V9.63665C10.5656 9.55895 10.5347 9.48443 10.4798 9.42949C10.4249 9.37455 10.3503 9.34368 10.2726 9.34368ZM11.1208 9.34368C11.0431 9.34368 10.9686 9.37455 10.9136 9.42949C10.8587 9.48443 10.8278 9.55895 10.8278 9.63665V10.0499C10.8278 10.1276 10.8587 10.2021 10.9136 10.257C10.9686 10.312 11.0431 10.3428 11.1208 10.3428C11.1985 10.3428 11.273 10.312 11.328 10.257C11.3829 10.2021 11.4138 10.1276 11.4138 10.0499V9.63665C11.4138 9.55895 11.3829 9.48443 11.328 9.42949C11.273 9.37455 11.1985 9.34368 11.1208 9.34368ZM6.87994 10.6734C6.80224 10.6734 6.72773 10.7042 6.67278 10.7592C6.61784 10.8141 6.58698 10.8886 6.58698 10.9663V11.3796C6.58698 11.4573 6.61784 11.5318 6.67278 11.5867C6.72773 11.6417 6.80224 11.6725 6.87994 11.6725C6.95764 11.6725 7.03216 11.6417 7.0871 11.5867C7.14205 11.5318 7.17291 11.4573 7.17291 11.3796V10.9663C7.17291 10.8886 7.14205 10.8141 7.0871 10.7592C7.03216 10.7042 6.95764 10.6734 6.87994 10.6734ZM7.72811 10.6734C7.65041 10.6734 7.57589 10.7042 7.52095 10.7592C7.46601 10.8141 7.43514 10.8886 7.43514 10.9663V11.3796C7.43514 11.4573 7.46601 11.5318 7.52095 11.5867C7.57589 11.6417 7.65041 11.6725 7.72811 11.6725C7.80581 11.6725 7.88033 11.6417 7.93527 11.5867C7.99021 11.5318 8.02108 11.4573 8.02108 11.3796V10.9663C8.02108 10.8886 7.99021 10.8141 7.93527 10.7592C7.88033 10.7042 7.80581 10.6734 7.72811 10.6734ZM8.57627 10.6734C8.49857 10.6734 8.42405 10.7042 8.36911 10.7592C8.31417 10.8141 8.2833 10.8886 8.2833 10.9663V11.3796C8.2833 11.4573 8.31417 11.5318 8.36911 11.5867C8.42405 11.6417 8.49857 11.6725 8.57627 11.6725C8.65397 11.6725 8.72849 11.6417 8.78343 11.5867C8.83837 11.5318 8.86924 11.4573 8.86924 11.3796V10.9663C8.86924 10.8886 8.83837 10.8141 8.78343 10.7592C8.72849 10.7042 8.65397 10.6734 8.57627 10.6734ZM9.42448 10.6734C9.34677 10.6734 9.27226 10.7042 9.21732 10.7592C9.16237 10.8141 9.13151 10.8886 9.13151 10.9663V11.3796C9.13151 11.4573 9.16237 11.5318 9.21732 11.5867C9.27226 11.6417 9.34677 11.6725 9.42448 11.6725C9.50218 11.6725 9.57669 11.6417 9.63164 11.5867C9.68658 11.5318 9.71744 11.4573 9.71744 11.3796V10.9663C9.71744 10.8886 9.68658 10.8141 9.63164 10.7592C9.57669 10.7042 9.50218 10.6734 9.42448 10.6734ZM10.2726 10.6734C10.1949 10.6734 10.1204 10.7042 10.0655 10.7592C10.0105 10.8141 9.97967 10.8886 9.97967 10.9663V11.3796C9.97967 11.4573 10.0105 11.5318 10.0655 11.5867C10.1204 11.6417 10.1949 11.6725 10.2726 11.6725C10.3503 11.6725 10.4249 11.6417 10.4798 11.5867C10.5347 11.5318 10.5656 11.4573 10.5656 11.3796V10.9663C10.5656 10.8886 10.5347 10.8141 10.4798 10.7592C10.4249 10.7042 10.3503 10.6734 10.2726 10.6734ZM11.1208 10.6734C11.0431 10.6734 10.9686 10.7042 10.9136 10.7592C10.8587 10.8141 10.8278 10.8886 10.8278 10.9663V11.3796C10.8278 11.4573 10.8587 11.5318 10.9136 11.5867C10.9686 11.6417 11.0431 11.6725 11.1208 11.6725C11.1985 11.6725 11.273 11.6417 11.328 11.5867C11.3829 11.5318 11.4138 11.4573 11.4138 11.3796V10.9663C11.4138 10.8886 11.3829 10.8141 11.328 10.7592C11.273 10.7042 11.1985 10.6734 11.1208 10.6734ZM6.87994 12.0031C6.80224 12.0031 6.72773 12.034 6.67278 12.0889C6.61784 12.1438 6.58698 12.2184 6.58698 12.2961V12.7093C6.58698 12.787 6.61784 12.8615 6.67278 12.9164C6.72773 12.9714 6.80224 13.0022 6.87994 13.0022C6.95764 13.0022 7.03216 12.9714 7.0871 12.9164C7.14205 12.8615 7.17291 12.787 7.17291 12.7093V12.2961C7.17291 12.2184 7.14205 12.1438 7.0871 12.0889C7.03216 12.034 6.95764 12.0031 6.87994 12.0031ZM7.72811 12.0031C7.65041 12.0031 7.57589 12.034 7.52095 12.0889C7.46601 12.1438 7.43514 12.2184 7.43514 12.2961V12.7093C7.43514 12.787 7.46601 12.8615 7.52095 12.9164C7.57589 12.9714 7.65041 13.0022 7.72811 13.0022C7.80581 13.0022 7.88033 12.9714 7.93527 12.9164C7.99021 12.8615 8.02108 12.787 8.02108 12.7093V12.2961C8.02108 12.2184 7.99021 12.1438 7.93527 12.0889C7.88033 12.034 7.80581 12.0031 7.72811 12.0031ZM8.57627 12.0031C8.49857 12.0031 8.42405 12.034 8.36911 12.0889C8.31417 12.1438 8.2833 12.2184 8.2833 12.2961V12.7093C8.2833 12.787 8.31417 12.8615 8.36911 12.9164C8.42405 12.9714 8.49857 13.0022 8.57627 13.0022C8.65397 13.0022 8.72849 12.9714 8.78343 12.9164C8.83837 12.8615 8.86924 12.787 8.86924 12.7093V12.2961C8.86924 12.2184 8.83837 12.1438 8.78343 12.0889C8.72849 12.034 8.65397 12.0031 8.57627 12.0031ZM9.42448 12.0031C9.34677 12.0031 9.27226 12.034 9.21732 12.0889C9.16237 12.1438 9.13151 12.2184 9.13151 12.2961V12.7093C9.13151 12.787 9.16237 12.8615 9.21732 12.9164C9.27226 12.9714 9.34677 13.0022 9.42448 13.0022C9.50218 13.0022 9.57669 12.9714 9.63164 12.9164C9.68658 12.8615 9.71744 12.787 9.71744 12.7093V12.2961C9.71744 12.2184 9.68658 12.1438 9.63164 12.0889C9.57669 12.034 9.50218 12.0031 9.42448 12.0031ZM10.2726 12.0031C10.1949 12.0031 10.1204 12.034 10.0655 12.0889C10.0105 12.1438 9.97967 12.2184 9.97967 12.2961V12.7093C9.97967 12.787 10.0105 12.8615 10.0655 12.9164C10.1204 12.9714 10.1949 13.0022 10.2726 13.0022C10.3503 13.0022 10.4249 12.9714 10.4798 12.9164C10.5347 12.8615 10.5656 12.787 10.5656 12.7093V12.2961C10.5656 12.2184 10.5347 12.1438 10.4798 12.0889C10.4249 12.034 10.3503 12.0031 10.2726 12.0031ZM11.1208 12.0031C11.0431 12.0031 10.9686 12.034 10.9136 12.0889C10.8587 12.1438 10.8278 12.2184 10.8278 12.2961V12.7093C10.8278 12.787 10.8587 12.8615 10.9136 12.9164C10.9686 12.9714 11.0431 13.0022 11.1208 13.0022C11.1985 13.0022 11.273 12.9714 11.328 12.9164C11.3829 12.8615 11.4138 12.787 11.4138 12.7093V12.2961C11.4138 12.2184 11.3829 12.1438 11.328 12.0889C11.273 12.034 11.1985 12.0031 11.1208 12.0031ZM6.87994 13.3328C6.80224 13.3328 6.72773 13.3636 6.67278 13.4186C6.61784 13.4735 6.58698 13.548 6.58698 13.6257V14.039C6.58698 14.1167 6.61784 14.1912 6.67278 14.2462C6.72773 14.3011 6.80224 14.332 6.87994 14.332C6.95764 14.332 7.03216 14.3011 7.0871 14.2462C7.14205 14.1912 7.17291 14.1167 7.17291 14.039V13.6257C7.17291 13.548 7.14205 13.4735 7.0871 13.4186C7.03216 13.3636 6.95764 13.3328 6.87994 13.3328ZM7.72811 13.3328C7.65041 13.3328 7.57589 13.3636 7.52095 13.4186C7.46601 13.4735 7.43514 13.548 7.43514 13.6257V14.039C7.43514 14.1167 7.46601 14.1912 7.52095 14.2462C7.57589 14.3011 7.65041 14.332 7.72811 14.332C7.80581 14.332 7.88033 14.3011 7.93527 14.2462C7.99021 14.1912 8.02108 14.1167 8.02108 14.039V13.6257C8.02108 13.548 7.99021 13.4735 7.93527 13.4186C7.88033 13.3636 7.80581 13.3328 7.72811 13.3328ZM8.57627 13.3328C8.49857 13.3328 8.42405 13.3636 8.36911 13.4186C8.31417 13.4735 8.2833 13.548 8.2833 13.6257V14.039C8.2833 14.1167 8.31417 14.1912 8.36911 14.2462C8.42405 14.3011 8.49857 14.332 8.57627 14.332C8.65397 14.332 8.72849 14.3011 8.78343 14.2462C8.83837 14.1912 8.86924 14.1167 8.86924 14.039V13.6257C8.86924 13.548 8.83837 13.4735 8.78343 13.4186C8.72849 13.3636 8.65397 13.3328 8.57627 13.3328ZM9.42448 13.3328C9.34677 13.3328 9.27226 13.3636 9.21732 13.4186C9.16237 13.4735 9.13151 13.548 9.13151 13.6257V14.039C9.13151 14.1167 9.16237 14.1912 9.21732 14.2462C9.27226 14.3011 9.34677 14.332 9.42448 14.332C9.50218 14.332 9.57669 14.3011 9.63164 14.2462C9.68658 14.1912 9.71744 14.1167 9.71744 14.039V13.6257C9.71744 13.548 9.68658 13.4735 9.63164 13.4186C9.57669 13.3636 9.50218 13.3328 9.42448 13.3328ZM10.2726 13.3328C10.1949 13.3328 10.1204 13.3636 10.0655 13.4186C10.0105 13.4735 9.97967 13.548 9.97967 13.6257V14.039C9.97967 14.1167 10.0105 14.1912 10.0655 14.2462C10.1204 14.3011 10.1949 14.332 10.2726 14.332C10.3503 14.332 10.4249 14.3011 10.4798 14.2462C10.5347 14.1912 10.5656 14.1167 10.5656 14.039V13.6257C10.5656 13.548 10.5347 13.4735 10.4798 13.4186C10.4249 13.3636 10.3503 13.3328 10.2726 13.3328ZM11.1208 13.3328C11.0431 13.3328 10.9686 13.3636 10.9136 13.4186C10.8587 13.4735 10.8278 13.548 10.8278 13.6257V14.039C10.8278 14.1167 10.8587 14.1912 10.9136 14.2462C10.9686 14.3011 11.0431 14.332 11.1208 14.332C11.1985 14.332 11.273 14.3011 11.328 14.2462C11.3829 14.1912 11.4138 14.1167 11.4138 14.039V13.6257C11.4138 13.548 11.3829 13.4735 11.328 13.4186C11.273 13.3636 11.1985 13.3328 11.1208 13.3328ZM6.87994 14.6625C6.80224 14.6625 6.72773 14.6933 6.67278 14.7483C6.61784 14.8032 6.58698 14.8777 6.58698 14.9554V15.3687C6.58698 15.4464 6.61784 15.5209 6.67278 15.5758C6.72773 15.6308 6.80224 15.6616 6.87994 15.6616C6.95764 15.6616 7.03216 15.6308 7.0871 15.5758C7.14205 15.5209 7.17291 15.4464 7.17291 15.3687V14.9554C7.17291 14.8777 7.14205 14.8032 7.0871 14.7483C7.03216 14.6933 6.95764 14.6625 6.87994 14.6625ZM11.1208 14.6625C11.0431 14.6625 10.9686 14.6933 10.9136 14.7483C10.8587 14.8032 10.8278 14.8777 10.8278 14.9554V15.3687C10.8278 15.4464 10.8587 15.5209 10.9136 15.5758C10.9686 15.6308 11.0431 15.6616 11.1208 15.6616C11.1985 15.6616 11.273 15.6308 11.328 15.5758C11.3829 15.5209 11.4138 15.4464 11.4138 15.3687V14.9554C11.4138 14.8777 11.3829 14.8032 11.328 14.7483C11.273 14.6933 11.1985 14.6625 11.1208 14.6625Z" fill="#9EA7AF" />
	<path d="M10.4502 18.8213C10.4502 18.944 10.3497 19.0445 10.2269 19.0445H7.7741C7.65125 19.0445 7.55078 18.944 7.55078 18.8213V14.9451C7.55078 14.8224 7.65125 14.7219 7.7741 14.7219H10.2269C10.3497 14.7219 10.4502 14.8224 10.4502 14.9451V18.8213Z" fill="#7FDEE9" />
	<path d="M8.70782 14.722H9.29376V18.704H8.70782V14.722Z" fill="#9EA7AF" />
	<path d="M12.7534 19.5079C12.7534 19.6175 12.6638 19.7071 12.5542 19.7071H5.44633C5.33672 19.7071 5.24707 19.6175 5.24707 19.5079V18.9031C5.24707 18.7936 5.33672 18.704 5.44633 18.704H12.5542C12.6638 18.704 12.7534 18.7936 12.7534 18.9031V19.5079Z" fill="#C5CCD3" />
	<path opacity="0.1" d="M6.48977 19.5079V18.9031C6.48977 18.7936 6.57945 18.704 6.68902 18.704H5.44633C5.33672 18.704 5.24707 18.7936 5.24707 18.9031V19.5079C5.24707 19.6175 5.33672 19.7071 5.44633 19.7071H6.68902C6.57945 19.7071 6.48977 19.6175 6.48977 19.5079Z" fill="black" />
	<path d="M17.6941 20H0.306519C0.228818 20 0.154301 19.9691 0.0993584 19.9142C0.0444161 19.8592 0.0135498 19.7847 0.0135498 19.707C0.0135498 19.6293 0.0444161 19.5548 0.0993584 19.4999C0.154301 19.4449 0.228818 19.4141 0.306519 19.4141H17.6941C17.7718 19.4141 17.8463 19.4449 17.9013 19.4999C17.9562 19.5548 17.9871 19.6293 17.9871 19.707C17.9871 19.7847 17.9562 19.8592 17.9013 19.9142C17.8463 19.9691 17.7718 20 17.6941 20Z" fill="#9EA7AF" />
</svg>
