<svg width="291" height="53" viewBox="0 0 291 53" fill="none" xmlns="http://www.w3.org/2000/svg">
	<path d="M25.9152 32.8614C24.9011 39.5948 18.5769 42.2544 18.5769 42.2544C18.4524 42.3033 18.3323 42.3478 18.2078 42.3878C13.6892 43.9533 8.68138 42.2589 5.88394 38.3807C4.4919 36.455 4.4919 35.5299 4.4919 35.5299C2.01469 35.5299 0 33.5241 0 31.0424V30.6333L9.79324 30.6244V32.8703C9.79324 35.3476 11.8079 37.3578 14.2851 37.3578H15.1035C17.5807 37.3578 19.5909 35.3431 19.5909 32.8659L25.9152 32.8614Z" fill="#3EB6FF" />
	<path d="M33.0801 31.7899L46.3556 52.9996L55.5351 47.2803L55.2905 46.8978C53.8496 44.6385 50.8431 43.9847 48.5972 45.4479L39.8135 31.7854L33.0801 31.7899Z" fill="#53B771" />
	<path d="M47.8188 27.5607C47.5253 26.6045 46.787 25.8484 45.8575 25.4749C45.8175 25.4571 45.7774 25.4437 45.7374 25.4259C44.4832 24.959 43.0823 25.4037 42.2773 26.4711C39.9735 29.5265 36.3222 31.5056 32.2083 31.5278C25.128 31.5678 19.3419 25.7462 19.4309 18.6659C19.5154 11.7234 25.1725 6.1241 32.1327 6.1241C32.324 6.1241 32.5819 6.13744 32.8265 6.15079C33.5292 6.19526 34.2275 5.95065 34.73 5.45699C34.7789 5.40807 34.8279 5.35915 34.8768 5.30578C35.1837 4.97222 35.3971 4.56306 35.4905 4.11387C35.4905 4.11387 36.0687 0.676012 32.9199 0.0311352L32.9066 0.0222317C32.5997 0.00888943 32.2928 0 31.9815 0C21.5078 0 13.1689 8.33003 13.1555 18.7993C13.1467 23.8649 15.148 28.4858 18.4035 31.9059C18.9461 32.4751 19.4753 33.0488 20.0046 33.6315C22.8643 36.7758 27.5741 41.7969 31.5679 45.3193L41.5212 35.9308C42.5619 34.9523 43.6293 34.0006 44.6967 33.0533C45.6707 32.1905 46.5557 31.2298 47.3385 30.1891C47.8766 29.4686 48.0856 28.5391 47.8544 27.6674C47.841 27.6363 47.8277 27.5963 47.8188 27.5607Z" fill="#FFA506" />
	<path d="M22.4994 18.368H20.6182V19.3598H22.4994V18.368Z" fill="#0E98FF" />
	<path d="M35.1302 20.1954H27.3872V21.165H35.1302V20.1954Z" fill="#F26211" />
	<path d="M35.8152 13.2183L27.6274 21.9308L28.3524 22.7002L36.6646 13.8676L35.8152 13.2183Z" fill="#0E98FF" />
	<path d="M32.5374 7.48035H31.5457V9.3616H32.5374V7.48035Z" fill="#F26211" />
	<path d="M25.0151 25.2299L23.6848 26.5602L24.3861 27.2615L25.7163 25.9312L25.0151 25.2299Z" fill="#FFA506" />
	<path d="M39.1125 25.2233L38.408 25.9276L39.738 27.258L40.4425 26.5537L39.1125 25.2233Z" fill="#72CEFC" />
	<path d="M43.4335 18.368H41.5522V19.3598H43.4335V18.368Z" fill="#53B771" />
	<path d="M32.5374 28.1703H31.5457V30.0515H32.5374V28.1703Z" fill="#E73F29" />
	<path d="M24.385 10.4732L23.6838 11.1746L25.0143 12.5046L25.7154 11.8032L24.385 10.4732Z" fill="#53B771" />
	<path d="M39.737 10.4702L38.4067 11.8004L39.1112 12.5048L40.4414 11.1746L39.737 10.4702Z" fill="#FFA506" />
	<path d="M73.9118 17.3009V21.4459C72.0127 19.5157 69.7668 18.5506 67.1517 18.5506C64.9725 18.5506 63.1312 19.2978 61.668 20.761C60.2048 22.2242 59.4888 24.061 59.4888 26.2758C59.4888 28.4862 60.2048 30.3274 61.668 31.7906C63.1312 33.2538 64.968 33.9698 67.1517 33.9698C69.7668 33.9698 72.0127 33.0048 73.9118 31.0746V35.2196C72.075 36.745 69.8291 37.4922 67.1517 37.4922C63.9451 37.4922 61.201 36.4337 58.9595 34.3167C56.7492 32.1686 55.6284 29.4868 55.6284 26.2802C55.6284 23.0736 56.7492 20.3918 58.9595 18.2437C61.201 16.0956 63.9451 15.0372 67.1517 15.0372C69.7979 15.0238 72.0439 15.7754 73.9118 17.3009Z" fill="#2A2927" />
	<path d="M78.2703 37.1095V15.3972H82.1662V33.5872H90.7942V37.1051H78.2703V37.1095Z" fill="#2A2927" />
	<path d="M95.3751 34.3079C93.1647 32.1598 92.0439 29.478 92.0439 26.3025C92.0439 23.1271 93.1647 20.4453 95.3751 18.2972C97.5854 16.1179 100.298 15.0283 103.505 15.0283C106.712 15.0283 109.424 16.1179 111.635 18.2972C113.876 20.4453 114.997 23.1271 114.997 26.3025C114.997 29.478 113.876 32.1598 111.666 34.3079C109.456 36.456 106.712 37.5456 103.505 37.5456C100.294 37.5501 97.5854 36.456 95.3751 34.3079ZM98.0524 31.8174C99.5156 33.2806 101.352 34.0277 103.505 34.0277C105.653 34.0277 107.463 33.2806 108.926 31.8174C110.39 30.323 111.137 28.4862 111.137 26.3025C111.137 24.1233 110.39 22.2821 108.926 20.7877C107.463 19.2934 105.658 18.5462 103.505 18.5462C101.357 18.5462 99.5156 19.2934 98.0524 20.7877C96.5892 22.2821 95.8732 24.1189 95.8732 26.3025C95.8732 28.5129 96.5892 30.3542 98.0524 31.8174Z" fill="#2A2927" />
	<path d="M135.744 17.3009V21.4459C133.845 19.5157 131.599 18.5506 128.984 18.5506C126.805 18.5506 124.964 19.2978 123.501 20.761C122.037 22.2242 121.321 24.061 121.321 26.2758C121.321 28.4862 122.037 30.3274 123.501 31.7906C124.964 33.2538 126.801 33.9698 128.984 33.9698C131.599 33.9698 133.845 33.0048 135.744 31.0746V35.2196C133.908 36.745 131.662 37.4922 128.984 37.4922C125.778 37.4922 123.034 36.4337 120.792 34.3167C118.582 32.1686 117.461 29.4868 117.461 26.2802C117.461 23.0736 118.582 20.3918 120.792 18.2437C123.034 16.0956 125.778 15.0372 128.984 15.0372C131.63 15.0238 133.876 15.7754 135.744 17.3009Z" fill="#2A2927" />
	<path d="M140.103 37.1095V15.3972H143.999V25.2705L152.471 15.3972H157.176L147.895 25.9865L157.519 37.1095H152.72L143.999 26.9561V37.1095H140.103Z" fill="#2A2927" />
	<path d="M158.577 31.1013C160.539 33.0315 162.909 33.9966 165.618 33.9966C168.233 33.9966 169.794 32.7825 169.794 31.3193C169.794 30.4164 169.451 29.7315 168.766 29.2023C168.113 28.673 166.836 28.0193 164.933 27.241C161.192 25.6532 159.169 23.941 159.169 20.8233C159.169 19.0488 159.854 17.6479 161.224 16.6161C162.593 15.5576 164.337 15.0283 166.458 15.0283C168.482 15.0283 170.261 15.5264 171.724 16.5226V20.4809C170.261 19.2045 168.549 18.5818 166.552 18.5818C164.341 18.5818 163.065 19.4846 163.065 20.8233C162.94 21.5393 163.594 22.162 164.123 22.629C164.404 22.878 165.369 23.345 165.711 23.5007L166.738 23.9676C167.237 24.1856 167.579 24.3101 167.735 24.4035C169.82 25.3063 171.315 26.2714 172.253 27.2988C173.187 28.3261 173.654 29.6648 173.654 31.3193C173.654 33.0938 172.969 34.557 171.599 35.7444C170.23 36.8963 168.299 37.4878 165.836 37.4878C163.065 37.4878 160.632 36.7407 158.577 35.2774V31.1013Z" fill="#2A2927" />
	<path d="M177.515 33.0931C178.667 33.0931 179.663 34.0582 179.663 35.2101C179.663 36.4243 178.667 37.3582 177.515 37.3582C176.363 37.3582 175.335 36.4243 175.335 35.2101C175.335 34.0582 176.363 33.0931 177.515 33.0931Z" fill="#2A2927" />
	<path d="M186.863 37.9548L179.262 15.4019H183.221L187.552 28.3928L193.69 15.0283L199.734 28.3617L204.128 15.4019H208.086L200.423 37.9859L193.694 23.3139L186.863 37.9548Z" fill="#2A2927" />
	<path d="M212.249 34.3079C210.039 32.1598 208.918 29.478 208.918 26.3025C208.918 23.1271 210.039 20.4453 212.249 18.2972C214.459 16.1179 217.172 15.0283 220.379 15.0283C223.586 15.0283 226.299 16.1179 228.509 18.2972C230.75 20.4453 231.871 23.1271 231.871 26.3025C231.871 29.478 230.75 32.1598 228.54 34.3079C226.33 36.456 223.586 37.5456 220.379 37.5456C217.172 37.5501 214.459 36.456 212.249 34.3079ZM214.931 31.8174C216.394 33.2806 218.231 34.0277 220.383 34.0277C222.532 34.0277 224.342 33.2806 225.805 31.8174C227.268 30.323 228.015 28.4862 228.015 26.3025C228.015 24.1233 227.268 22.2821 225.805 20.7877C224.342 19.2934 222.536 18.5462 220.383 18.5462C218.235 18.5462 216.394 19.2934 214.931 20.7877C213.468 22.2821 212.752 24.1189 212.752 26.3025C212.747 28.5129 213.463 30.3542 214.931 31.8174Z" fill="#2A2927" />
	<path d="M235.487 37.1095V15.3972H243.928C245.89 15.3972 247.54 16.051 248.914 17.3897C250.284 18.6972 250.969 20.3161 250.969 22.2818C250.969 25.1148 249.381 27.4542 247.01 28.4504L252.276 37.1095H247.882L243.239 29.3844H243.177H239.374V37.1095H235.487ZM239.383 25.8976H243.528C245.645 25.8976 247.108 24.4344 247.108 22.3485C247.108 20.3561 245.707 18.924 243.839 18.924H239.383V25.8976Z" fill="#2A2927" />
	<path d="M255.3 37.1095V15.3972H259.196V33.5872H267.824V37.1051H255.3V37.1095Z" fill="#2A2927" />
	<path d="M271.218 37.1095V15.3972H278.974C282.554 15.3972 285.36 16.3934 287.353 18.417C289.376 20.4095 290.373 23.029 290.373 26.2978C290.373 29.5667 289.376 32.1862 287.384 34.1476C285.391 36.1089 282.585 37.1051 279.005 37.1051H271.218V37.1095ZM275.109 33.5916H278.725C284.115 33.5916 286.481 30.7586 286.481 26.3023C286.481 21.7214 284.146 18.9196 278.694 18.9196H275.113V33.5916H275.109Z" fill="#2A2927" />
</svg>
