<svg width="2397" height="907" viewBox="0 0 2397 907" fill="none" xmlns="http://www.w3.org/2000/svg">
	<path d="M2375.5 300.362C2371.37 340.408 2324.11 369.779 2278.54 373.846C2232.97 377.914 2189.06 363.247 2147.01 348.998C2104.96 334.749 2060.7 320.338 2015.27 325.411C1964.08 330.967 1919.6 359.87 1871.13 376.457C1718.35 428.672 1536.21 356.271 1392.48 426.575C1317.52 463.23 1270.45 531.138 1221.27 593.091C1172.1 655.044 1110.5 718.024 1027.26 733.472C930.253 751.474 831.403 699.242 735.284 721.253C682.413 733.376 637.85 766.599 585.645 780.916C497.625 805.083 406.661 772.372 321.663 746.053C236.666 719.735 134.94 701.25 58.7946 747.921L0 337.566L2356.03 0L2375.5 300.362Z" fill="#FFC807" fill-opacity="0.2" />
	<path d="M152.384 855.351C204.208 828.676 266.775 834.555 323.635 847.71C380.496 860.866 436.768 880.636 495.224 879.692C617.753 877.708 724.287 785.607 846.766 780.487C910.453 777.836 974.616 799.121 1037.26 787.246C1118.19 771.921 1177.93 705.467 1228.7 641.214C1279.47 576.961 1332.58 507.395 1410.44 480.612C1527.79 440.251 1653.13 511.092 1777.17 513.11C1840.07 514.123 1902.74 497.231 1965.35 501.926C2027.95 506.621 2096.16 542.603 2106.65 603.934L2167.54 599.168L2126.81 78.8575L122.131 235.762L152.384 855.351Z" fill="#FFC807" fill-opacity="0.1" />
</svg>
