<svg width="20" height="20" viewBox="0 0 20 20" fill="none" xmlns="http://www.w3.org/2000/svg">
	<path d="M9.99996 15.6571C13.1243 15.6571 15.6571 13.1243 15.6571 9.99996C15.6571 6.87558 13.1243 4.34277 9.99996 4.34277C6.87558 4.34277 4.34277 6.87558 4.34277 9.99996C4.34277 13.1243 6.87558 15.6571 9.99996 15.6571Z" fill="#F8BA1C" />
	<path d="M10 2.22066C9.96031 2.22067 9.92101 2.21286 9.88434 2.19767C9.84767 2.18248 9.81435 2.16022 9.78628 2.13216C9.75822 2.10409 9.73596 2.07077 9.72077 2.0341C9.70558 1.99743 9.69777 1.95813 9.69777 1.91844V0.302227C9.69777 0.135273 9.83309 0 10 0C10.1669 0 10.3022 0.135273 10.3022 0.302227V1.91848C10.3022 1.95816 10.2944 1.99746 10.2792 2.03413C10.264 2.07079 10.2418 2.10411 10.2137 2.13217C10.1856 2.16023 10.1523 2.18249 10.1157 2.19767C10.079 2.21286 10.0397 2.22067 10 2.22066ZM5.95949 3.30344C5.90639 3.3035 5.85421 3.28956 5.80822 3.26303C5.76222 3.2365 5.72403 3.1983 5.6975 3.1523L4.88941 1.75262C4.84934 1.6832 4.83848 1.60071 4.85922 1.52328C4.87997 1.44586 4.93062 1.37984 5.00004 1.33977C5.06946 1.29969 5.15195 1.28883 5.22938 1.30957C5.3068 1.33032 5.37281 1.38097 5.41289 1.45039L6.22098 2.85008C6.2475 2.896 6.26147 2.9481 6.26148 3.00113C6.26149 3.05417 6.24755 3.10627 6.22105 3.15221C6.19456 3.19815 6.15644 3.23631 6.11053 3.26285C6.06461 3.2894 6.01253 3.3034 5.95949 3.30344ZM3.0009 6.26148C2.94793 6.26149 2.8959 6.2475 2.85008 6.22094L1.45039 5.41285C1.3823 5.37211 1.33297 5.30623 1.31303 5.22942C1.29309 5.15262 1.30416 5.07106 1.34383 5.00235C1.3835 4.93363 1.4486 4.88327 1.52508 4.86213C1.60156 4.841 1.68329 4.85078 1.75262 4.88937L3.1523 5.69746C3.20994 5.73074 3.25498 5.78212 3.28044 5.84362C3.30589 5.90512 3.31034 5.9733 3.29308 6.03758C3.27583 6.10187 3.23783 6.15866 3.185 6.19914C3.13217 6.23963 3.06746 6.26154 3.0009 6.26148ZM1.91844 10.3022H0.302227C0.135313 10.3022 0 10.167 0 10C0 9.83305 0.135313 9.69777 0.302227 9.69777H1.91848C1.99863 9.69778 2.0755 9.72962 2.13218 9.78631C2.18885 9.84299 2.22069 9.91986 2.22068 10C2.22068 10.0802 2.18883 10.157 2.13215 10.2137C2.07547 10.2704 1.99859 10.3022 1.91844 10.3022ZM1.60176 15.1511C1.5352 15.1512 1.47048 15.1293 1.41765 15.0888C1.36481 15.0483 1.32682 14.9915 1.30957 14.9272C1.29232 14.863 1.29677 14.7948 1.32223 14.7333C1.34769 14.6718 1.39274 14.6204 1.45039 14.5871L2.85008 13.7791C2.91941 13.7405 3.00113 13.7307 3.07761 13.7518C3.15409 13.773 3.21919 13.8233 3.25887 13.892C3.29854 13.9607 3.3096 14.0423 3.28967 14.1191C3.26973 14.1959 3.22039 14.2618 3.1523 14.3025L1.75262 15.1106C1.70677 15.1372 1.65473 15.1511 1.60176 15.1511ZM5.15086 18.7008C5.09783 18.7007 5.04575 18.6867 4.99984 18.6602C4.95394 18.6336 4.91582 18.5954 4.88933 18.5495C4.86284 18.5036 4.8489 18.4515 4.84892 18.3984C4.84893 18.3454 4.8629 18.2933 4.88941 18.2474L5.6975 16.8477C5.73824 16.7796 5.80413 16.7303 5.88093 16.7103C5.95773 16.6904 6.03929 16.7015 6.10801 16.7411C6.17672 16.7808 6.22708 16.8459 6.24822 16.9224C6.26935 16.9989 6.25957 17.0806 6.22098 17.1499L5.41289 18.5496C5.38635 18.5956 5.34816 18.6338 5.30215 18.6603C5.25615 18.6869 5.20397 18.7008 5.15086 18.7008ZM10 20C9.96031 20 9.92101 19.9922 9.88434 19.977C9.84767 19.9618 9.81435 19.9396 9.78628 19.9115C9.75822 19.8834 9.73596 19.8501 9.72077 19.8134C9.70558 19.7768 9.69777 19.7375 9.69777 19.6978V18.0815C9.69777 17.9146 9.83309 17.7793 10 17.7793C10.1669 17.7793 10.3022 17.9146 10.3022 18.0815V19.6978C10.3022 19.7375 10.2944 19.7768 10.2792 19.8134C10.264 19.8501 10.2418 19.8834 10.2137 19.9115C10.1857 19.9396 10.1523 19.9618 10.1157 19.977C10.079 19.9922 10.0397 20 10 20ZM14.8491 18.7008C14.796 18.7008 14.7439 18.6869 14.6979 18.6604C14.6519 18.6338 14.6137 18.5956 14.5871 18.5496L13.7791 17.15C13.739 17.0805 13.7281 16.998 13.7489 16.9206C13.7696 16.8432 13.8203 16.7772 13.8897 16.7371C13.9591 16.697 14.0416 16.6862 14.119 16.7069C14.1964 16.7277 14.2625 16.7783 14.3025 16.8477L15.1106 18.2474C15.1371 18.2933 15.1511 18.3454 15.1511 18.3985C15.1511 18.4515 15.1372 18.5036 15.1107 18.5496C15.0842 18.5955 15.0461 18.6337 15.0002 18.6602C14.9543 18.6867 14.9022 18.7007 14.8491 18.7008ZM18.3982 15.1511C18.3453 15.1511 18.2932 15.1372 18.2474 15.1106L16.8477 14.3025C16.7796 14.2618 16.7303 14.1959 16.7104 14.1191C16.6904 14.0423 16.7015 13.9607 16.7412 13.892C16.7808 13.8233 16.8459 13.7729 16.9224 13.7518C16.9989 13.7306 17.0806 13.7404 17.15 13.779L18.5496 14.5871C18.6073 14.6204 18.6523 14.6718 18.6778 14.7333C18.7032 14.7948 18.7077 14.863 18.6904 14.9272C18.6732 14.9915 18.6352 15.0483 18.5823 15.0888C18.5295 15.1293 18.4648 15.1512 18.3982 15.1511ZM19.6978 10.3022H18.0815C17.9146 10.3022 17.7793 10.167 17.7793 10C17.7793 9.83305 17.9146 9.69777 18.0815 9.69777H19.6978C19.8647 9.69777 20 9.83305 20 10C20 10.167 19.8647 10.3022 19.6978 10.3022ZM16.9991 6.26148C16.9325 6.26155 16.8678 6.23964 16.815 6.19916C16.7622 6.15867 16.7242 6.10188 16.7069 6.0376C16.6897 5.97332 16.6941 5.90513 16.7196 5.84364C16.745 5.78214 16.7901 5.73077 16.8477 5.6975L18.2474 4.88941C18.3168 4.85082 18.3985 4.84104 18.475 4.86217C18.5514 4.88331 18.6165 4.93367 18.6562 5.00238C18.6959 5.0711 18.7069 5.15266 18.687 5.22946C18.6671 5.30626 18.6177 5.37215 18.5496 5.41289L17.15 6.22098C17.1041 6.24751 17.0521 6.26148 16.9991 6.26148ZM14.0405 3.30344C13.9875 3.30338 13.9354 3.28937 13.8895 3.26282C13.8436 3.23627 13.8055 3.1981 13.779 3.15216C13.7525 3.10622 13.7386 3.05412 13.7386 3.00109C13.7386 2.94806 13.7525 2.89597 13.7791 2.85004L14.5871 1.45035C14.6279 1.38226 14.6938 1.33293 14.7706 1.31299C14.8474 1.29305 14.9289 1.30412 14.9977 1.34379C15.0664 1.38346 15.1167 1.44857 15.1379 1.52505C15.159 1.60153 15.1492 1.68325 15.1106 1.75258L14.3025 3.15227C14.276 3.19827 14.2378 3.23647 14.1918 3.26301C14.1458 3.28955 14.0936 3.30349 14.0405 3.30344Z" fill="#F8BA1C" />
	<path d="M9.99965 4.34326C9.79488 4.34326 9.5927 4.35443 9.39355 4.37561C12.2328 4.67807 14.4445 7.08076 14.4445 10.0003C14.4445 12.9197 12.2328 15.3225 9.39355 15.6249C9.5927 15.6462 9.79484 15.6573 9.99965 15.6573C13.1239 15.6573 15.6567 13.1246 15.6567 10.0003C15.6567 6.87596 13.124 4.34326 9.99965 4.34326Z" fill="#FFC807" />
</svg>
